<?xml version="1.0" encoding="utf-8"?>
<!-- Generator: Adobe Illustrator 22.0.1, SVG Export Plug-In . SVG Version: 6.00 Build 0)  -->
<svg version="1.1" id="Laag_1" xmlns="http://www.w3.org/2000/svg" xmlns:xlink="http://www.w3.org/1999/xlink" x="0px" y="0px"
	 viewBox="0 0 500 500" style="enable-background:new 0 0 500 500;" xml:space="preserve">
<style type="text/css">
	.st0{fill:#EDC03F;stroke:#FFFFFF;stroke-miterlimit:10;}
	.st1{fill:#08090A;}
</style>
<g>
	<path class="st0" d="M182.9,268.8c-0.7-1-1.7-1.2-2.5-1.9c-1.1-1-1-1.6-1-3.1c0-2.2-0.5-3.5-1.8-5.2c-1.2-1.6-2.5-3.3-4.3-4.3
		c-1.8-1-4.3-1-5.7,0.5c-0.5,0.6-0.9,1.3-1.5,1.9c-1.4,1.3-3.9,0.9-5.1,2.4c-0.5,0.6-0.6,1.4-1,2.1c-0.9,1.8-2.9,2.7-4.7,3.4
		c-1,0.4-1.9,0.8-3,0.8c-1.1,0-2.1-0.3-3.1-0.6c-1.3-0.5-2.7-0.9-4-1.4c-0.7-0.2-1.5-0.5-2.2-0.3c-1.3,0.4-1.7,2-1.9,3.3
		c-0.3,2.4-0.4,4.8-0.2,7.3c0,0.6,0.1,1.2,0.3,1.8c0.8,1.7,3,2,4.3,3.3c1.7,1.5,1.9,4.1,2,6.4c0.1,2.1,0.1,4.2-0.8,6.1
		c-0.5,0.9-1.2,1.7-1.6,2.6c-0.7,1.6-0.5,3.7,0.7,5c0.5,0.6,1.1,1.1,1.4,1.8c0.3,0.9-0.1,1.8-0.4,2.6c-0.8,1.9-1.6,3.8-2.4,5.7
		c1-0.2,1.3,1.4,1.2,2.5c-1.1,7-1,14.8,3.5,20.3c0.7,0.8,1.4,1.6,2.4,1.9c1,0.4,2.2,0.2,2.9-0.6c0.3-0.4,0.5-1,1-1.2
		c0.4-0.3,1-0.2,1.5-0.3c2.4,0,4.7-1.4,5.9-3.4c1-1.7,1.4-3.9,3.1-4.8c3-1.5,6.4,2.3,9.6,1.4c2.2-0.7,3.1-3.2,3.7-5.4
		c1-3.7,2-7.4,2-11.1c0-4-1.1-8-0.8-11.9c0-0.5,0.1-1.1,0.4-1.5c0.3-0.5,0.9-0.8,1.2-1.3c0.8-1.1,0.3-2.7-0.4-3.9
		c-0.7-1.2-1.6-2.5-1.4-3.8c0.1-1.6,1.5-2.7,2.4-4c1.6-2.2,2-5,1.7-7.6C184.1,272.4,183.8,270.2,182.9,268.8z"/>
	<path class="st0" d="M391.8,288.9c1.6-2.3,1.6-5.7-0.2-7.9c-2.1-2.6-5.9-3.5-7.6-6.3c-1.2,0.2-2.8-0.9-3.4-2
		c-0.5-1.1-0.7-2.4-1.3-3.4c-1.8-3.5-6.5-3.9-10.4-4.5c-5-0.8-9.8-2.6-14.1-5.2c-2.8-1.7-5.4-3.9-8.4-5.2c-3.4-1.5-7.2-1.8-10.8-2.9
		c-3.6-1.1-7.2-3.4-8.2-6.9c-0.3-0.9-0.3-1.9,0.4-2.6c0.4-0.4,1.1-0.6,1.6-0.7c2.6-0.8,5-3.3,4.2-5.8c-0.8-2.7-4.5-3.2-7.3-2.7
		c-2.8,0.6-5.8,1.8-8.4,0.6c-0.7-0.3-1.3-0.7-2-0.5c-0.4,0.1-0.7,0.4-1.1,0.7c-2.5,2.2-6.7,1.9-9-0.5c-0.6-0.6-1-1.3-1.6-1.8
		c-0.8-0.7-1.8-1.1-2.7-1.6c-0.4-0.2-0.8-0.5-1.2-0.7c-3.1-2.1-5.4-5.3-8.5-7.4c-3-2-5.3-5.3-8.4-7.1c-3.1-1.7-4.1-4.4-4.1-8
		c0.9-1.4,1.3-3.3,0.7-4.9c-0.6-1.6-1.5-3-2.1-4.5c-1.3-3.3-1.1-7.1-3.3-9.9c-0.9-1.1-2-1.9-3.2-2.6c-7.9-5.2-15.9-10.2-24.1-14.9
		c-2-1.1-4.2-2.5-4.8-4.8c-0.8-2.9,1.6-6.2,0.2-8.9c-0.5-0.9-1.4-1.6-1.9-2.6c-0.9-1.8,0.3-4.3,2.3-4.7c1.7-0.4,3.8,0.6,5.2-0.5
		c-0.3-2.2,0.7-4.6-0.4-6.5c-0.4-0.7-1.1-1.3-1.7-1.9c-0.9-0.9-1.7-2.1-2-3.4c-0.5-2.1,0.4-4.4,1.4-6.3c0.2-0.4,0.4-0.8,0.7-1.1
		c0.4-0.5,0.9-0.8,1.4-1c2-1,4.4-1.3,6.6-1.7c2.2-0.4,4.5-1.2,6-3c0.3-0.4,0.6-0.9,1.1-1.3c1.4-1.2,3.6-0.5,5.2-1.3
		c0.9-0.4,1.7-1.2,2.6-1.3c0.9-0.1,1.7,0.5,2.3,1.2c0.6,0.7,1.1,1.4,1.9,1.8c0.8,0.4,1.9,0.5,2.4-0.3c0.5-0.7,0.2-1.8-0.4-2.5
		c-0.6-0.7-1.4-1.2-1.9-1.9c0.1-1.7-1.1-3.1-2-4.6c-0.6-1-1.1-2-1.5-3.1c-0.2-0.5-0.4-1.1-0.4-1.7c0-0.8,0.4-1.5,0.6-2.3
		c0.2-0.8,0.9-1.8,0.5-2.6c-1-2.2-1.8-5.2,0.1-6.7c0.4-0.4,1-0.6,1.4-1c1.8-1.6,0.3-4.9-1.9-5.7c-2.3-0.8-4.8-0.1-7.2,0.4
		c-3.9,0.7-7.9,0.6-11.7-0.3c-3.5-0.8-7-2.6-8.8-5.7c-1.1-1.9-1.4-4.2-3-5.7c-2.3-2.3-6-1.8-9.1-1.3c-4.7,0.9-9.4,1.7-14.1,2.6
		c-1.3,0.2-2.7,0.5-3.8,1.2c-1.7,1-2.9,2.9-4.6,3.8c-0.2,0.1-0.3,0.2-0.5,0.2c-1.7,0.6-3.6,0.1-5.4,0c-1.8-0.1-4,0.6-4.4,2.4
		c-0.2,0.8,0,1.6-0.2,2.4c-0.4,1.3-2,1.8-3.2,2.4c-2.4,1.1-4.1,3.2-6.2,4.8c-2.1,1.6-4.9,2.7-7.3,1.6c-0.2-1.5-0.4-2.9-0.5-4.4
		c-1-1.9-4-1.3-5.4,0.3c-1.4,1.6-1.8,3.9-3,5.6c-1.2,1.8-3.3,3.1-5.5,3.4c-1.7,0.2-3.6-0.2-4.8-1.5c-0.8-0.9-1.2-2-1.9-3
		c-2.7-4-9.6-4.1-12.3-0.1c-0.9,1.3-1.4,2.9-2.3,4.2c-2.6,3.5-7.6,3.9-11.9,3.4c-3.4-0.4-7.3-0.9-9.7,1.5c-2.5,2.5-1.7,6.7-0.7,10.1
		c0.9,3.4,1.6,7.7-1.1,10c-1.6,1.4-4.4,2.4-4,4.5c-1.2,1.9-1.3,3.8-0.5,5.8c0.9,2.1,2.4,3.8,4,5.3c0.4,0.4,0.8,0.8,0.9,1.3
		c0.3,1.1-0.9,2-1.8,2.8c-2.2,1.7-3.8,4.2-4.4,7c-0.9,3.7,0.6,8.3,4.3,9.2c1.1,0.3,2.3,0.2,3.4,0.5c1.9,0.6,3.1,2.5,5,3.1
		c1.3,0.5,2.7,0.3,3.9,0.9c1.3,0.7,2,2.3,2.1,3.8c0.1,1.5-0.4,3-0.8,4.4c0-0.5,0.1-0.9,0.1-1.4c-0.5,0.1-0.9,0.7-0.8,1.2
		c0.1,0.8,0.9,1.4,1.6,1.7c0.7,0.4,1.4,0.7,2.1,0.9c0.4,0.1,0.8,0.3,1.3,0.3c0.6,0,1.1-0.1,1.7-0.3c0.8-0.2,1.5-0.5,2.3-0.7
		c1.1-0.3,2.1-0.7,3.1-1.3c0.5-0.3,0.9-0.7,1.3-1.1c1.1-1.1,2.1-2.3,3.1-3.6c0.4-0.5,0.8-1.1,0.7-1.8c0.3-0.5,0.9-0.7,0.9-1.3
		c0-0.3,0-0.7,0.1-1c0.2-0.7,0.9-1.1,1.6-1.3c1.4-0.4,3.1-0.4,3.8-1.6c0.3-0.6,0.4-1.3,0.8-1.9c0.5-0.7,1.4-0.8,2.2-1.1
		c1.1-0.4,2.1-1.3,2.6-2.4c2.6,1.9,6,2.2,9.1,1.2c0.4-0.1,0.8-0.2,1.2-0.1c0.3,0.1,0.5,0.3,0.7,0.5c2.6,2.5,3.6,6.5,6.5,8.6
		c1.2,0.9,2.6,1.4,4.1,1.4c0.8,0,1.5-0.1,2.2,0.1c0.6,0.2,1.1,0.5,1.6,0.9c1,0.8,1.7,1.9,2.2,3.1c0.4,1,0.6,2.1,1,3.1
		c0.6,1.3,1.5,2.3,1.9,3.6c0.4,1.3,0.2,2.7,0.3,4c0.2,1.4,0.9,2.7,1.6,4c0.7,1.3,1.3,2.6,2,3.9c1.7,0.4,2.3,3.2,2.3,5
		c0,1.8-0.4,3.7,0.3,5.3c1.2,2.8,4.8,3.6,6.8,5.9c0.8,0.9,1.2,1.9,1.7,3c0.1,0.2,0.2,0.3,0.2,0.5c1.1,2.5,2.3,5,3.4,7.5
		c0.5,1.1,1.1,2.3,2,3.2c1.8,1.7,4.6,1.7,6.9,2.7c3.2,1.4,5.3,4.4,8.1,6.3c3.1,2.1,7.2,2.8,9.5,5.8c2.2,2.9,2.1,7.4,5.1,9.5
		c0.8,0.6,1.9,1,2.8,1.4c5,2.3,8.8,7.4,14.3,8.1c2.3,0.3,4.6-0.2,6.9-0.2c8.2,0,15.4,8.2,14.4,16.4c2.1-1,4.5-1.6,6.8-0.9
		c2.2,0.7,4.1,3,3.6,5.3c2.8-0.9,5.6-1.8,8.4-2.6c0.1,0,0.2-0.1,0.3-0.1c0.5-0.2,1.1-0.3,1.6-0.2c1.1,0.2,1.7,1.3,2.1,2.3
		c0.7,1.5,1.2,3.2,0.9,4.9c-0.5,3-3.4,6-1.8,8.6c1.1,1.9,3.8,1.9,6,1.8c2.2,0,5,0.5,5.4,2.7c1.7-0.9,3.8-1.1,5.5-2
		c1.2-0.6,2.7-1.2,3.9-0.5c1,0.6,1.3,1.9,1.4,3c0.3,2.7,0.4,5.5,1.2,8.1c0.8,2.5,2.3,4.8,2.8,7.3c0.2,1.2,0.2,2.6,0.7,3.7
		c0.5,1.3,1.3,2.3,1.9,3.5c1.1,2.6,0.4,5.8,1.4,8.4c0.2,0.5,0.4,0.9,0.4,1.4c-0.1,0.9-0.9,1.5-1.8,1.7c-0.8,0.2-1.7,0.1-2.6,0.3
		c-1.7,0.3-3.1,1.8-3.5,3.5c-0.4,1.7,0.4,3.6,1.8,4.6c0.2,2.2-0.2,4.9-1.5,6.7c-1.3,1.9-3.4,3.5-3.3,5.8c0,0.6,0.2,1.3,0.4,1.9
		c0.3,1.1,0.7,2.3,1.5,3.2c0,0,0,0,0.1,0.1h11.1c0.2-0.2,0.3-0.3,0.5-0.5c1.4-1.5,2.6-3.3,4.3-4.5c1.4-1,3.2-1.6,4.3-2.9
		c1.4-1.5,1.6-3.7,1.8-5.7c0.3-3.5,0.7-6.9,1-10.4c0.1-0.9,0.2-1.7,0.5-2.6c1-2.8,4.4-4.1,7.3-3.9c1.4,0.1,2.9,0.3,4.1-0.3
		c1.2-0.6,1.8-1.9,2.3-3.1c0.3-0.7,0.5-1.4,0.4-2.1c-0.2-1.6-1.9-2.7-2.2-4.3c-0.3-1.2,0.2-2.4,0.6-3.5c0.4-1.1,0.6-2.5-0.1-3.4
		c-0.3-0.4-0.8-0.7-1.3-0.9c-2.5-1.1-5.6-0.7-8-2.1c-0.4-0.3-0.8-0.7-1-1.1c-0.8-1.6-1.9-3.1-3.2-4.3c-0.5-0.5-1.1-0.9-1.4-1.5
		c-0.7-1.5,0.3-3.2,1.5-4.3c0.6-0.5,1.3-1.1,1.5-1.9c0.2-0.9-0.5-1.7-1.1-2.4c-0.7-0.6-1.4-1.3-1.6-2.2c-0.2-0.9,0.2-1.7,0.8-2.4
		c0.6-0.6,1.3-1.1,2-1.7c1.6-1.3,2.9-3.1,3.6-5.1c0.4-1.1,2-1.4,3.2-1.2c1.2,0.3,2.2,1,3.3,1.5c1.5,0.7,3.1,1.2,4.8,1.3
		c1.6,0.1,3.2-0.1,4.8,0.2c1.5,0.3,2.8,1,4.1,1.7c1.1,0.6,2.1,1.3,2.7,2.4c0.5,0.9,0.5,2,0.9,3c0.3,0.6,0.7,1.2,1.1,1.8
		c0.6,0.9,1.1,1.9,1.5,2.9c1.5,1.1,3.6,1.5,5.5,1.5c0.4,0,0.8,0,1.1,0.2c0.3,0.1,0.5,0.4,0.7,0.6c0.3,0.4,0.6,0.8,0.9,1.2
		c0.3,0.4,0.6,0.8,1.1,1c1,0.4,2.2-0.5,2.5-1.5c0.3-1,0-2.2-0.2-3.2c-0.3-1.1-0.5-2.2-0.1-3.2C390.9,290,391.4,289.5,391.8,288.9z"
		/>
	<path class="st0" d="M315.3,370.6c0.2-0.7,0.5-1.4,0.8-2c0.1-0.3,0.3-0.7,0.4-1c0.5-1.3,0.9-2.7,1.2-4c1.5-5.8,3-11.6,4.5-17.3
		c-0.8-0.1-1.7-0.1-2.5-0.1c-1.4,0-2.8,0.2-4,0.7c-2.1,0.9-3.7,2.8-5.8,3.9l0,0c-0.3,0.1-0.6,0.3-0.8,0.4c0,0-0.1,0-0.1,0.1
		c-0.3,0.1-0.5,0.2-0.8,0.2c-0.1,0-0.1,0-0.2,0c-0.3,0.1-0.6,0.1-0.9,0.2c0,0,0,0-0.1,0c-0.3,0-0.6,0.1-0.9,0.1c0,0-0.1,0-0.1,0
		c-0.3,0-0.6,0-0.9,0c-0.1,0-0.1,0-0.2,0c-0.3,0-0.6,0-0.9,0c0,0-0.1,0-0.1,0c-0.3,0-0.6,0-0.9,0c0,0-0.1,0-0.1,0
		c-0.3,0-0.6,0-0.9-0.1c-0.3,0-0.7,0-1-0.1c0,0-0.1,0-0.1,0c-0.2,0-0.3,0-0.5,0v0c-2.3-0.1-4.5-0.1-6.6,0.7
		c-1.3,0.5-2.5,1.4-3.8,1.9c-4.3,1.7-9.4-0.2-13.6,1.8c-2.5,1.2-5.2-0.5-6.7-2.7c-1.3-2,0-5.2-2.6-6.4c-0.8-0.3-1.7-0.3-2.5-0.1
		c-2.4,0.5-4.5,2.2-5.4,4.4c-0.4,0.9-0.7,1.9-1.6,2.3c-1,0.5-2.2-0.3-2.9-1.1c-0.8-0.8-1.5-1.8-2.6-2c-1.2-0.3-2.4,0.5-3.4,1.2
		c-0.9,0.6-1.9,1.3-2.5,2.3c-0.4,0.6-0.6,1.3-0.8,2c-1,3.4-2,6.9-3,10.3c-0.2,0.8-0.4,1.5-0.3,2.3c0.2,0.9,0.9,1.6,1.7,2.1
		c2,1.4,4.3,2.3,6.7,2.5c1.9,0.1,4.1-0.1,5.7,1c0.7,0.5,1.3,1.3,2.1,1.6c1.1,0.4,2.3,0.1,3.4,0.2c3.3,0.4,4.7,5,7.9,5.5
		c0.8,0.1,1.6,0,2.4,0.1c1.9,0.2,3.5,1.7,3.9,3.6c0.1,0.5,0.1,1.1,0.4,1.6c0.3,0.5,0.9,0.7,1.5,0.8c3.9,0.7,8.5-1,11.8,1.3
		c2.8,2,3.4,6.3,6.3,8.2c1.4,0.9,3,1,4.6,1.2c2.8,0.3,5.7,0.6,8.5,0.9c0.4,0,0.8,0.1,1.2,0.1c0.4,0,0.9,0,1.3-0.1
		c0.7-0.1,1.4-0.4,1.9-1c0.2-0.3,0.4-0.6,0.5-0.9c0.2-0.5,0.2-1.1,0.2-1.8c0-1-0.1-2,0.2-3c0.4-1.2,1.3-2.1,2.2-3.1
		c0.9-0.9,1.8-1.9,2-3.1c0-0.2,0.1-0.3,0.1-0.5c0.1-1.7-1-3.4-1.4-5.1c-0.1-0.5-0.2-1-0.2-1.5c0-0.3,0.1-0.7,0.2-1
		c0.1-0.4,0.4-0.8,0.3-1.2c-0.1-0.5-0.7-0.7-1.1-1c-1.2-0.8-1.6-2.5-1.3-3.9C315.1,371.3,315.2,371,315.3,370.6z"/>
</g>
<path class="st1" d="M193,146.3c0.4,19,0.6,35.1,0.7,48.3c0.1,13.2,0.1,24.8,0,34.5c-0.1,9.8-0.2,18.2-0.4,25.4
	c-0.2,7.1-0.3,14-0.4,20.6c-0.1,6.6-0.1,13.6,0,20.9c0.1,7.3,0.3,15.9,0.7,25.7l25.7,0.6c3.1,0,5.6,0.5,7.5,1.5c1.8,1,3.2,2.3,4,3.8
	c0.8,1.5,1.2,3.2,1.2,5c0,1.8-0.3,3.6-0.8,5.2c-0.6,1.8-2.4,3.2-5.5,4c-3.1,0.8-6.8,1.4-10.9,1.7c-4.1,0.3-8.3,0.4-12.6,0.3
	c-4.2-0.1-7.7-0.2-10.5-0.2c-12-0.4-22.2-0.5-30.5-0.2c-8.4,0.3-15.4,0.5-21,0.5c-5.6,0-10-0.3-13.3-0.9c-3.2-0.6-5.7-2-7.3-4.3
	c-1.7-2.2-2.7-5.4-3.2-9.6c-0.5-4.2-0.7-9.8-0.7-17c0-4.7,0-11.5,0-20.5s0-18.9,0-29.8c0-10.9,0-22.3-0.1-34.1
	c-0.1-11.8-0.2-23.1-0.3-33.8c-0.1-10.7-0.3-20.2-0.6-28.6c-0.3-8.4-0.5-14.6-0.7-18.6c-0.2-3.1,0-5.5,0.4-7.5
	c0.5-1.9,1.1-3.5,2.1-4.6c0.9-1.1,2.1-1.9,3.6-2.4c1.5-0.5,3-1.1,4.7-1.7c3.9-1.2,8.4-1.9,13.5-2.1c5.2-0.2,10.5-0.1,16,0.2
	c5.5,0.3,11,0.8,16.3,1.4c5.3,0.6,10.1,1.3,14.4,2.1c3.9,0.8,6.2,2.6,6.9,5.5C192.6,140.6,193,143.5,193,146.3z"/>
<path class="st1" d="M338.4,263.7c-2.4,0.4-4.3-0.4-5.7-2.3c-1.4-1.9-2.1-4-2.1-6.3c0-1.4,0.5-3.2,1.4-5.2c0.9-2,2.4-3,4.4-2.8
	c11.4-0.6,20.4-0.5,26.8,0.5c6.4,0.9,11.3,2.9,14.5,6c3.2,3.1,5.3,7.4,6.2,13c0.9,5.6,1.6,12.8,1.9,21.6c0.4,5.7,0.2,10.7-0.4,15.1
	c-0.6,4.4-2.3,9.8-4.8,16.3c-1.8,4.5-4.9,8.4-9.3,11.8c-4.3,3.4-9.4,6.2-15.3,8.4c-5.9,2.2-12.4,3.9-19.4,4.9c-7,1-14,1.5-21,1.4
	c-7-0.1-13.8-0.8-20.3-2.1c-6.5-1.3-12.3-3.1-17.3-5.4c-9.2-4.3-17.6-9.9-25.2-16.8c-7.6-6.9-14-14.9-19.3-24
	c-5.3-9.1-9.5-19.1-12.6-30.3c-3-11.1-4.6-22.9-4.6-35.3c0-21,3.4-38.9,10.1-53.6c6.7-14.8,15.9-26.4,27.5-34.8
	c11.6-8.5,25.2-13.8,40.8-16c15.6-2.2,32.1-1.3,49.6,2.8c2.2,0.6,4.8,1.7,7.7,3.2c2.9,1.5,5.9,3.3,9,5.3c3,2,5.9,4.1,8.6,6.1
	c2.7,2,4.8,3.9,6.5,5.5c0.4,0.4,1.1,1.1,2.1,2.1c1,1,1.9,2.3,2.6,3.8c0.7,1.5,1.1,3.2,1.1,5c0,1.8-0.6,3.7-1.9,5.5
	c-0.4,1.4-1.1,2.4-2.2,2.9c-1.1,0.5-2.4,0.7-3.7,0.5c-1.4-0.2-2.7-0.7-4-1.4c-1.3-0.7-2.3-1.6-3-2.6c-2.2-2.8-4.7-5.3-7.6-7.3
	c-2.9-2-5.9-3.7-9-4.9c-3.1-1.2-6.2-2.2-9.3-2.9c-3-0.7-5.9-1.1-8.4-1.1c-11.1-0.4-19.9,1.5-26.4,5.8c-6.5,4.3-9.8,11.1-9.8,20.5
	c-0.7,3.3-1.1,8.1-1.1,14.5c0,6.4,0.1,13.3,0.4,20.6c0.3,7.3,0.6,14.6,1.1,21.9c0.5,7.2,0.7,13.1,0.7,17.6c0,6.3,0.2,13.4,0.6,21.4
	c0.4,7.9,1.1,15.5,2.3,22.8c1.2,7.2,3,13.4,5.4,18.6c2.4,5.2,5.8,8.1,10.2,8.7c7.7,1,15.5,0.9,23.4-0.5c7.8-1.3,15.1-5.5,21.7-12.7
	c2.9-3.3,4.7-6.7,5.1-10.4c0.5-3.7,0.6-8.1,0.4-13.5c-0.4-6.9-1.2-11.8-2.6-14.7c-1.4-2.8-3.3-4.7-5.7-5.5c-2.4-0.8-5.3-1.1-8.6-0.9
	S342.8,264.5,338.4,263.7z"/>
</svg>
