<?xml version="1.0" encoding="utf-8"?>
<!-- Generator: Adobe Illustrator 22.0.1, SVG Export Plug-In . SVG Version: 6.00 Build 0)  -->
<svg version="1.1" id="Laag_1" xmlns="http://www.w3.org/2000/svg" xmlns:xlink="http://www.w3.org/1999/xlink" x="0px" y="0px"
	 viewBox="0 0 500 500" style="enable-background:new 0 0 500 500;" xml:space="preserve">
<style type="text/css">
	.st0{fill:#EDC03F;}
</style>
<g>
	<path class="st0" d="M174.2,294.9c-1-1.5-2.5-1.8-3.7-2.8c-1.6-1.5-1.5-2.4-1.5-4.6c0-3.2-0.7-5.1-2.6-7.6
		c-1.8-2.4-3.7-4.8-6.3-6.3s-6.3-1.5-8.4,0.7c-0.7,0.9-1.3,1.9-2.2,2.8c-2.1,1.9-5.7,1.3-7.5,3.5c-0.7,0.9-0.9,2.1-1.5,3.1
		c-1.3,2.6-4.3,4-6.9,5c-1.5,0.6-2.8,1.2-4.4,1.2c-1.6,0-3.1-0.4-4.6-0.9c-1.9-0.7-4-1.3-5.9-2.1c-1-0.3-2.2-0.7-3.2-0.4
		c-1.9,0.6-2.5,2.9-2.8,4.8c-0.4,3.5-0.6,7.1-0.3,10.7c0,0.9,0.1,1.8,0.4,2.6c1.2,2.5,4.4,2.9,6.3,4.8c2.5,2.2,2.8,6,2.9,9.4
		c0.1,3.1,0.1,6.2-1.2,9c-0.7,1.3-1.8,2.5-2.4,3.8c-1,2.4-0.7,5.4,1,7.3c0.7,0.9,1.6,1.6,2.1,2.6c0.4,1.3-0.1,2.6-0.6,3.8
		c-1.2,2.8-2.4,5.6-3.5,8.4c1.5-0.3,1.9,2.1,1.8,3.7c-1.6,10.3-1.5,21.7,5.1,29.8c1,1.2,2.1,2.4,3.5,2.8c1.5,0.6,3.2,0.3,4.3-0.9
		c0.4-0.6,0.7-1.5,1.5-1.8c0.6-0.4,1.5-0.3,2.2-0.4c3.5,0,6.9-2.1,8.7-5c1.5-2.5,2.1-5.7,4.6-7.1c4.4-2.2,9.4,3.4,14.1,2.1
		c3.2-1,4.6-4.7,5.4-7.9c1.5-5.4,2.9-10.9,2.9-16.3c0-5.9-1.6-11.8-1.2-17.5c0-0.7,0.1-1.6,0.6-2.2c0.4-0.7,1.3-1.2,1.8-1.9
		c1.2-1.6,0.4-4-0.6-5.7s-2.4-3.7-2.1-5.6c0.1-2.4,2.2-4,3.5-5.9c2.4-3.2,2.9-7.3,2.5-11.2C176,300.2,175.5,297,174.2,294.9z"/>
	<path class="st0" d="M481.1,324.5c2.4-3.4,2.4-8.4-0.3-11.6c-3.1-3.8-8.7-5.1-11.2-9.3c-1.8,0.3-4.1-1.3-5-2.9
		c-0.7-1.6-1-3.5-1.9-5c-2.6-5.1-9.5-5.7-15.3-6.6c-7.3-1.2-14.4-3.8-20.7-7.6c-4.1-2.5-7.9-5.7-12.3-7.6c-5-2.2-10.6-2.6-15.9-4.3
		c-5.3-1.6-10.6-5-12-10.1c-0.4-1.3-0.4-2.8,0.6-3.8c0.6-0.6,1.6-0.9,2.4-1c3.8-1.2,7.3-4.8,6.2-8.5c-1.2-4-6.6-4.7-10.7-4
		c-4.1,0.9-8.5,2.6-12.3,0.9c-1-0.4-1.9-1-2.9-0.7c-0.6,0.1-1,0.6-1.6,1c-3.7,3.2-9.8,2.8-13.2-0.7c-0.9-0.9-1.5-1.9-2.4-2.6
		c-1.2-1-2.6-1.6-4-2.4c-0.6-0.3-1.2-0.7-1.8-1c-4.6-3.1-7.9-7.8-12.5-10.9c-4.4-2.9-7.8-7.8-12.3-10.4c-4.6-2.5-6-6.5-6-11.8
		c1.3-2.1,1.9-4.8,1-7.2c-0.9-2.4-2.2-4.4-3.1-6.6c-1.9-4.8-1.6-10.4-4.8-14.5c-1.3-1.6-2.9-2.8-4.7-3.8
		c-11.6-7.6-23.4-15-35.4-21.9c-2.9-1.6-6.2-3.7-7.1-7.1c-1.2-4.3,2.4-9.1,0.3-13.1c-0.7-1.3-2.1-2.4-2.8-3.8
		c-1.3-2.6,0.4-6.3,3.4-6.9c2.5-0.6,5.6,0.9,7.6-0.7c-0.4-3.2,1-6.8-0.6-9.5c-0.6-1-1.6-1.9-2.5-2.8c-1.3-1.3-2.5-3.1-2.9-5
		c-0.7-3.1,0.6-6.5,2.1-9.3c0.3-0.6,0.6-1.2,1-1.6c0.6-0.7,1.3-1.2,2.1-1.5c2.9-1.5,6.5-1.9,9.7-2.5c3.2-0.6,6.6-1.8,8.8-4.4
		c0.4-0.6,0.9-1.3,1.6-1.9c2.1-1.8,5.3-0.7,7.6-1.9c1.3-0.6,2.5-1.8,3.8-1.9c1.3-0.1,2.5,0.7,3.4,1.8c0.9,1,1.6,2.1,2.8,2.6
		s2.8,0.7,3.5-0.4c0.7-1,0.3-2.6-0.6-3.7S308,74,307.3,73c0.1-2.5-1.6-4.6-2.9-6.8c-0.9-1.5-1.6-2.9-2.2-4.6
		c-0.3-0.7-0.6-1.6-0.6-2.5c0-1.2,0.6-2.2,0.9-3.4c0.3-1.2,1.3-2.6,0.7-3.8c-1.5-3.2-2.6-7.6,0.1-9.8c0.6-0.6,1.5-0.9,2.1-1.5
		c2.6-2.4,0.4-7.2-2.8-8.4c-3.4-1.2-7.1-0.1-10.6,0.6c-5.7,1-11.6,0.9-17.2-0.4c-5.1-1.2-10.3-3.8-12.9-8.4
		c-1.6-2.8-2.1-6.2-4.4-8.4c-3.4-3.4-8.8-2.6-13.4-1.9c-6.9,1.3-13.8,2.5-20.7,3.8c-1.9,0.3-4,0.7-5.6,1.8c-2.5,1.5-4.3,4.3-6.8,5.6
		c-0.3,0.1-0.4,0.3-0.7,0.3c-2.5,0.9-5.3,0.1-7.9,0s-5.9,0.9-6.5,3.5c-0.3,1.2,0,2.4-0.3,3.5c-0.6,1.9-2.9,2.6-4.7,3.5
		c-3.5,1.6-6,4.7-9.1,7.1c-3.1,2.4-7.2,4-10.7,2.4c-0.3-2.2-0.6-4.3-0.7-6.5c-1.5-2.8-5.9-1.9-7.9,0.4c-2.1,2.4-2.6,5.7-4.4,8.2
		c-1.8,2.6-4.8,4.6-8.1,5c-2.5,0.3-5.3-0.3-7.1-2.2c-1.2-1.3-1.8-2.9-2.8-4.4c-4-5.9-14.1-6-18.1-0.1c-1.3,1.9-2.1,4.3-3.4,6.2
		c-3.8,5.1-11.2,5.7-17.5,5c-5-0.6-10.7-1.3-14.2,2.2c-3.7,3.7-2.5,9.8-1,14.8c1.3,5,2.4,11.3-1.6,14.7c-2.4,2.1-6.5,3.5-5.9,6.6
		c-1.8,2.8-1.9,5.6-0.7,8.5c1.3,3.1,3.5,5.6,5.9,7.8c0.6,0.6,1.2,1.2,1.3,1.9c0.4,1.6-1.3,2.9-2.6,4.1c-3.2,2.5-5.6,6.2-6.5,10.3
		c-1.3,5.4,0.9,12.2,6.3,13.5c1.6,0.4,3.4,0.3,5,0.7c2.8,0.9,4.6,3.7,7.3,4.6c1.9,0.7,4,0.4,5.7,1.3c1.9,1,2.9,3.4,3.1,5.6
		c0.1,2.2-0.6,4.4-1.2,6.5c0-0.7,0.1-1.3,0.1-2.1c-0.7,0.1-1.3,1-1.2,1.8c0.1,1.2,1.3,2.1,2.4,2.5c1,0.6,2.1,1,3.1,1.3
		c0.6,0.1,1.2,0.4,1.9,0.4c0.9,0,1.6-0.1,2.5-0.4c1.2-0.3,2.2-0.7,3.4-1c1.6-0.4,3.1-1,4.6-1.9c0.7-0.4,1.3-1,1.9-1.6
		c1.6-1.6,3.1-3.4,4.6-5.3c0.6-0.7,1.2-1.6,1-2.6c0.4-0.7,1.3-1,1.3-1.9c0-0.4,0-1,0.1-1.5c0.3-1,1.3-1.6,2.4-1.9
		c2.1-0.6,4.6-0.6,5.6-2.4c0.4-0.9,0.6-1.9,1.2-2.8c0.7-1,2.1-1.2,3.2-1.6c1.6-0.6,3.1-1.9,3.8-3.5c3.8,2.8,8.8,3.2,13.4,1.8
		c0.6-0.1,1.2-0.3,1.8-0.1c0.4,0.1,0.7,0.4,1,0.7c3.8,3.7,5.3,9.5,9.5,12.6c1.8,1.3,3.8,2.1,6,2.1c1.2,0,2.2-0.1,3.2,0.1
		c0.9,0.3,1.6,0.7,2.4,1.3c1.5,1.2,2.5,2.8,3.2,4.6c0.6,1.5,0.9,3.1,1.5,4.6c0.9,1.9,2.2,3.4,2.8,5.3s0.3,4,0.4,5.9
		c0.3,2.1,1.3,4,2.4,5.9c1,1.9,1.9,3.8,2.9,5.7c2.5,0.6,3.4,4.7,3.4,7.3c0,2.6-0.6,5.4,0.4,7.8c1.8,4.1,7.1,5.3,10,8.7
		c1.2,1.3,1.8,2.8,2.5,4.4c0.1,0.3,0.3,0.4,0.3,0.7c1.6,3.7,3.4,7.3,5,11c0.7,1.6,1.6,3.4,2.9,4.7c2.6,2.5,6.8,2.5,10.1,4
		c4.7,2.1,7.8,6.5,11.9,9.3c4.6,3.1,10.6,4.1,14,8.5c3.2,4.3,3.1,10.9,7.5,14c1.2,0.9,2.8,1.5,4.1,2.1c7.3,3.4,12.9,10.9,21,11.9
		c3.4,0.4,6.8-0.3,10.1-0.3c12,0,22.6,12,21.2,24.1c3.1-1.5,6.6-2.4,10-1.3c3.2,1,6,4.4,5.3,7.8c4.1-1.3,8.2-2.6,12.3-3.8
		c0.1,0,0.3-0.1,0.4-0.1c0.7-0.3,1.6-0.4,2.4-0.3c1.6,0.3,2.5,1.9,3.1,3.4c1,2.2,1.8,4.7,1.3,7.2c-0.7,4.4-5,8.8-2.6,12.6
		c1.6,2.8,5.6,2.8,8.8,2.6c3.2,0,7.3,0.7,7.9,4c2.5-1.3,5.6-1.6,8.1-2.9c1.8-0.9,4-1.8,5.7-0.7c1.5,0.9,1.9,2.8,2.1,4.4
		c0.4,4,0.6,8.1,1.8,11.9c1.2,3.7,3.4,7.1,4.1,10.7c0.3,1.8,0.3,3.8,1,5.4c0.7,1.9,1.9,3.4,2.8,5.1c1.6,3.8,0.6,8.5,2.1,12.3
		c0.3,0.7,0.6,1.3,0.6,2.1c-0.1,1.3-1.3,2.2-2.6,2.5c-1.2,0.3-2.5,0.1-3.8,0.4c-2.5,0.4-4.6,2.6-5.1,5.1c-0.6,2.5,0.6,5.3,2.6,6.8
		c0.3,3.2-0.3,7.2-2.2,9.8c-1.9,2.8-5,5.1-4.8,8.5c0,0.9,0.3,1.9,0.6,2.8c0.4,1.6,1,3.4,2.2,4.7c0,0,0,0,0.1,0.1h16.3
		c0.3-0.3,0.4-0.4,0.7-0.7c2.1-2.2,3.8-4.8,6.3-6.6c2.1-1.5,4.7-2.4,6.3-4.3c2.1-2.2,2.4-5.4,2.6-8.4c0.4-5.1,1-10.1,1.5-15.3
		c0.1-1.3,0.3-2.5,0.7-3.8c1.5-4.1,6.5-6,10.7-5.7c2.1,0.1,4.3,0.4,6-0.4c1.8-0.9,2.6-2.8,3.4-4.6c0.4-1,0.7-2.1,0.6-3.1
		c-0.3-2.4-2.8-4-3.2-6.3c-0.4-1.8,0.3-3.5,0.9-5.1s0.9-3.7-0.1-5c-0.4-0.6-1.2-1-1.9-1.3c-3.7-1.6-8.2-1-11.8-3.1
		c-0.6-0.4-1.2-1-1.5-1.6c-1.2-2.4-2.8-4.6-4.7-6.3c-0.7-0.7-1.6-1.3-2.1-2.2c-1-2.2,0.4-4.7,2.2-6.3c0.9-0.7,1.9-1.6,2.2-2.8
		c0.3-1.3-0.7-2.5-1.6-3.5c-1-0.9-2.1-1.9-2.4-3.2c-0.3-1.3,0.3-2.5,1.2-3.5c0.9-0.9,1.9-1.6,2.9-2.5c2.4-1.9,4.3-4.6,5.3-7.5
		c0.6-1.6,2.9-2.1,4.7-1.8c1.8,0.4,3.2,1.5,4.8,2.2c2.2,1,4.6,1.8,7.1,1.9c2.4,0.1,4.7-0.1,7.1,0.3c2.2,0.4,4.1,1.5,6,2.5
		c1.6,0.9,3.1,1.9,4,3.5c0.7,1.3,0.7,2.9,1.3,4.4c0.4,0.9,1,1.8,1.6,2.6c0.9,1.3,1.6,2.8,2.2,4.3c2.2,1.6,5.3,2.2,8.1,2.2
		c0.6,0,1.2,0,1.6,0.3c0.4,0.1,0.7,0.6,1,0.9c0.4,0.6,0.9,1.2,1.3,1.8c0.4,0.6,0.9,1.2,1.6,1.5c1.5,0.6,3.2-0.7,3.7-2.2
		c0.4-1.5,0-3.2-0.3-4.7c-0.4-1.6-0.7-3.2-0.1-4.7C479.7,326.1,480.5,325.3,481.1,324.5z"/>
	<path class="st0" d="M368.7,444.5c0.3-1,0.7-2.1,1.2-2.9c0.1-0.4,0.4-1,0.6-1.5c0.7-1.9,1.3-4,1.8-5.9c2.2-8.5,4.4-17,6.6-25.4
		c-1.2-0.1-2.5-0.1-3.7-0.1c-2.1,0-4.1,0.3-5.9,1c-3.1,1.3-5.4,4.1-8.5,5.7l0,0c-0.4,0.1-0.9,0.4-1.2,0.6c0,0-0.1,0-0.1,0.1
		c-0.4,0.1-0.7,0.3-1.2,0.3c-0.1,0-0.1,0-0.3,0c-0.4,0.1-0.9,0.1-1.3,0.3c0,0,0,0-0.1,0c-0.4,0-0.9,0.1-1.3,0.1H355
		c-0.4,0-0.9,0-1.3,0c-0.1,0-0.1,0-0.3,0c-0.4,0-0.9,0-1.3,0H352c-0.4,0-0.9,0-1.3,0h-0.1c-0.4,0-0.9,0-1.3-0.1c-0.4,0-1,0-1.5-0.1
		h-0.1c-0.3,0-0.4,0-0.7,0l0,0c-3.4-0.1-6.6-0.1-9.7,1c-1.9,0.7-3.7,2.1-5.6,2.8c-6.3,2.5-13.8-0.3-20,2.6c-3.7,1.8-7.6-0.7-9.8-4
		c-1.9-2.9,0-7.6-3.8-9.4c-1.2-0.4-2.5-0.4-3.7-0.1c-3.5,0.7-6.6,3.2-7.9,6.5c-0.6,1.3-1,2.8-2.4,3.4c-1.5,0.7-3.2-0.4-4.3-1.6
		c-1.2-1.2-2.2-2.6-3.8-2.9c-1.8-0.4-3.5,0.7-5,1.8c-1.3,0.9-2.8,1.9-3.7,3.4c-0.6,0.9-0.9,1.9-1.2,2.9c-1.5,5-2.9,10.1-4.4,15.1
		c-0.3,1.2-0.6,2.2-0.4,3.4c0.3,1.3,1.3,2.4,2.5,3.1c2.9,2.1,6.3,3.4,9.8,3.7c2.8,0.1,6-0.1,8.4,1.5c1,0.7,1.9,1.9,3.1,2.4
		c1.6,0.6,3.4,0.1,5,0.3c4.8,0.6,6.9,7.3,11.6,8.1c1.2,0.1,2.4,0,3.5,0.1c2.8,0.3,5.1,2.5,5.7,5.3c0.1,0.7,0.1,1.6,0.6,2.4
		c0.4,0.7,1.3,1,2.2,1.2c5.7,1,12.5-1.5,17.3,1.9c4.1,2.9,5,9.3,9.3,12c2.1,1.3,4.4,1.5,6.8,1.8c4.1,0.4,8.4,0.9,12.5,1.3
		c0.6,0,1.2,0.1,1.8,0.1c0.6,0,1.3,0,1.9-0.1c1-0.1,2.1-0.6,2.8-1.5c0.3-0.4,0.6-0.9,0.7-1.3c0.3-0.7,0.3-1.6,0.3-2.6
		c0-1.5-0.1-2.9,0.3-4.4c0.6-1.8,1.9-3.1,3.2-4.6c1.3-1.3,2.6-2.8,2.9-4.6c0-0.3,0.1-0.4,0.1-0.7c0.1-2.5-1.5-5-2.1-7.5
		c-0.1-0.7-0.3-1.5-0.3-2.2c0-0.4,0.1-1,0.3-1.5c0.1-0.6,0.6-1.2,0.4-1.8c-0.1-0.7-1-1-1.6-1.5c-1.8-1.2-2.4-3.7-1.9-5.7
		C368.4,445.5,368.6,445.1,368.7,444.5z"/>
</g>
</svg>
