<?xml version="1.0" encoding="utf-8"?>
<!-- Generator: Adobe Illustrator 22.0.1, SVG Export Plug-In . SVG Version: 6.00 Build 0)  -->
<svg version="1.1" id="Laag_1" xmlns="http://www.w3.org/2000/svg" xmlns:xlink="http://www.w3.org/1999/xlink" x="0px" y="0px"
	 viewBox="0 0 841.9 363.5" style="enable-background:new 0 0 841.9 363.5;" xml:space="preserve">
<style type="text/css">
	.st0{fill:#212121;}
</style>
<g>
	<path class="st0" d="M78.2,138.6c0.2,9.9,0.3,18.3,0.4,25.1c0.1,6.9,0.1,12.9,0,18c-0.1,5.1-0.1,9.5-0.2,13.2
		c-0.1,3.7-0.2,7.3-0.2,10.7c-0.1,3.4-0.1,7.1,0,10.9c0.1,3.8,0.2,8.3,0.4,13.4l14.8,0.3c1.8,0,3.2,0.3,4.3,0.8
		c1.1,0.5,1.8,1.2,2.3,2c0.5,0.8,0.7,1.7,0.7,2.6s-0.2,1.9-0.5,2.7c-0.3,1-1.4,1.6-3.2,2.1c-1.8,0.4-3.9,0.7-6.3,0.9
		c-2.4,0.2-4.8,0.2-7.2,0.2c-2.4-0.1-4.5-0.1-6-0.1c-6.9-0.2-12.8-0.2-17.6-0.1c-4.8,0.2-8.9,0.2-12.1,0.2c-3.2,0-5.8-0.2-7.6-0.5
		c-1.9-0.3-3.3-1.1-4.2-2.2c-1-1.2-1.6-2.8-1.8-5c-0.3-2.2-0.4-5.1-0.4-8.8c0-2.4,0-6,0-10.7c0-4.7,0-9.8,0-15.5
		c0-5.7,0-11.6-0.1-17.7c-0.1-6.2-0.1-12-0.2-17.6c-0.1-5.6-0.2-10.5-0.3-14.9c-0.2-4.3-0.3-7.6-0.4-9.7c-0.1-1.6,0-2.9,0.2-3.9
		c0.3-1,0.7-1.8,1.2-2.4c0.5-0.6,1.2-1,2.1-1.3c0.8-0.3,1.8-0.6,2.7-0.9c2.2-0.6,4.8-1,7.8-1.1c3-0.1,6-0.1,9.2,0.1s6.3,0.4,9.4,0.7
		c3.1,0.3,5.8,0.7,8.3,1.1c2.2,0.4,3.6,1.4,4,2.9C78,135.6,78.2,137.1,78.2,138.6z"/>
	<path class="st0" d="M185.8,218.8c0,1.6,0,3.4,0,5.3c0,2,0,3.9-0.1,5.8c-0.1,1.9-0.2,3.7-0.5,5.5c-0.3,1.8-0.7,3.3-1.4,4.5
		c-0.4,0.9-2.1,1.5-5.1,2c-3,0.5-6.2,0.7-9.6,0.7c-3.4,0-6.6-0.2-9.5-0.7c-2.9-0.5-4.6-1.2-5-2.3c-0.6-1.9-1-4.4-1-7.6
		c-0.1-3.1-0.1-6.4,0-9.9c0.1-3.4,0.1-6.8,0.2-9.9c0.1-3.2-0.1-5.8-0.4-7.8c-2.4-0.3-5.1-0.5-7.9-0.6c-2.8-0.1-5.7-0.1-8.7-0.1
		c-3,0-5.9,0-8.9-0.1c-3-0.1-5.8-0.2-8.6-0.6c-0.6,3-1,6.1-1,9.3c0,3.2,0.1,6.4,0.2,9.6c0.2,3.2,0.3,6.2,0.3,9.1
		c0.1,2.9-0.1,5.3-0.4,7.3c-0.2,1.4-0.8,2.3-1.8,2.8c-1,0.5-2.1,0.6-3.2,0.5c-1.1-0.2-2.1-0.7-2.9-1.5c-0.8-0.9-1.3-1.9-1.3-3.2
		c0-3.6-0.1-7.2-0.2-10.7c-0.1-3.5-0.1-7.9,0.2-13.2c0.2-6,0.4-12,0.6-17.9c0.2-5.9,0.6-11.5,1.4-17c0.7-5.4,2-10.4,3.7-15
		c1.7-4.6,4.2-8.7,7.5-12.2c2.1-2.4,4.9-4.6,8.3-6.5c3.4-1.9,7.5-2.9,12.3-2.9c6.7,0,12.4,1.1,17.3,3.2c4.8,2.1,8.9,5,12.1,8.8
		c3.2,3.7,5.8,8,7.7,13c1.9,4.9,3.3,10.3,4.2,16c0.9,5.7,1.5,11.7,1.7,17.8C186,206.6,186,212.7,185.8,218.8z M154.9,194.3
		c0-7.3-0.4-13.5-1.3-18.6c-0.8-5.1-2.1-9.2-3.7-12.4c-1.6-3.2-3.6-5.5-6-6.9c-2.3-1.4-5-2.1-8-2.1c-2,0-3.8,0.7-5.4,2.2
		c-1.6,1.5-3,3.4-4.2,5.9c-1.2,2.4-2.3,5.1-3.1,8.1c-0.8,3-1.6,5.9-2.1,8.9c-0.6,3-1,5.8-1.3,8.4c-0.3,2.7-0.4,4.8-0.4,6.5H154.9z"
		/>
	<path class="st0" d="M297.4,200.2c-1.4,0.2-2.5-0.2-3.3-1.2c-0.8-1-1.2-2.1-1.2-3.3c0-0.7,0.3-1.6,0.8-2.7c0.5-1.1,1.4-1.5,2.5-1.4
		c6.6-0.3,11.7-0.2,15.4,0.2c3.7,0.5,6.5,1.5,8.4,3.1c1.9,1.6,3,3.8,3.6,6.8c0.5,2.9,0.9,6.7,1.1,11.2c0.2,3,0.1,5.6-0.2,7.9
		c-0.4,2.3-1.3,5.1-2.8,8.5c-1.1,2.3-2.8,4.4-5.3,6.1c-2.5,1.8-5.4,3.2-8.8,4.4c-3.4,1.2-7.1,2-11.1,2.5c-4,0.5-8.1,0.8-12.1,0.7
		c-4-0.1-7.9-0.4-11.7-1.1c-3.8-0.7-7.1-1.6-9.9-2.8c-5.3-2.2-10.1-5.1-14.5-8.8c-4.4-3.6-8.1-7.8-11.1-12.5
		c-3.1-4.7-5.5-10-7.2-15.8c-1.8-5.8-2.6-11.9-2.6-18.4c0-10.9,1.9-20.2,5.8-27.9c3.9-7.7,9.2-13.7,15.8-18.1
		c6.7-4.4,14.5-7.2,23.5-8.4c9-1.2,18.5-0.7,28.6,1.4c1.3,0.3,2.8,0.9,4.5,1.7c1.7,0.8,3.4,1.7,5.2,2.8c1.8,1.1,3.4,2.1,4.9,3.2
		c1.5,1.1,2.8,2,3.7,2.9c0.2,0.2,0.6,0.6,1.2,1.1c0.6,0.5,1.1,1.2,1.5,2c0.4,0.8,0.6,1.7,0.6,2.6c0,1-0.4,1.9-1.1,2.9
		c-0.2,0.7-0.6,1.2-1.3,1.5c-0.6,0.3-1.4,0.3-2.1,0.2c-0.8-0.1-1.6-0.3-2.3-0.7c-0.7-0.4-1.3-0.8-1.8-1.4c-1.3-1.5-2.7-2.8-4.4-3.8
		c-1.6-1.1-3.4-1.9-5.2-2.5c-1.8-0.6-3.6-1.1-5.3-1.5c-1.8-0.4-3.4-0.6-4.9-0.6c-6.4-0.2-11.4,0.8-15.2,3c-3.8,2.2-5.6,5.8-5.6,10.7
		c-0.4,1.7-0.6,4.2-0.6,7.6c0,3.3,0.1,6.9,0.2,10.7c0.2,3.8,0.4,7.6,0.6,11.4c0.3,3.8,0.4,6.8,0.4,9.2c0,3.3,0.1,7,0.3,11.1
		c0.2,4.1,0.7,8.1,1.4,11.9c0.7,3.8,1.7,7,3.1,9.7c1.4,2.7,3.3,4.2,5.9,4.5c4.5,0.5,8.9,0.5,13.4-0.2c4.5-0.7,8.7-2.9,12.5-6.6
		c1.7-1.7,2.7-3.5,2.9-5.4c0.3-1.9,0.3-4.2,0.2-7c-0.2-3.6-0.7-6.2-1.5-7.6c-0.8-1.5-1.9-2.4-3.3-2.9c-1.4-0.4-3-0.6-4.9-0.5
		C302.2,200.8,299.9,200.7,297.4,200.2z"/>
	<path class="st0" d="M366.2,144.4c1.2,3.2,1.8,7.3,1.9,12.4c0.1,5.1,0.1,10.6,0,16.4c-0.1,5.8-0.2,11.7-0.2,17.7
		c0,5.9,0.4,11.3,1.3,16.1c0.8,4.8,2.3,8.7,4.5,11.7c2.1,3,5.3,4.5,9.5,4.5c3.4-0.4,6.1-2.3,8.2-5.5c2.1-3.2,3.6-7.2,4.7-11.8
		c1.1-4.6,1.8-9.7,2.1-15.3c0.3-5.6,0.5-10.9,0.4-16.1c-0.1-5.1-0.2-9.8-0.4-14c-0.2-4.2-0.3-7.3-0.3-9.3c0-1.7,0.2-3.2,0.5-4.6
		c0.2-1.2,0.6-2.2,1-3.2c0.5-1,1.2-1.4,2.1-1.4c1.9,0,3.4,0.2,4.5,0.5c1.1,0.3,1.9,0.8,2.4,1.6c0.5,0.7,0.8,1.8,1,3.2
		c0.1,1.4,0.2,3.1,0.2,5.1v25.1c0,4.9-0.1,9.3-0.3,13.3c-0.2,4-0.6,7.7-1.1,11.1c-0.5,3.5-1.3,6.7-2.4,9.8c-1.1,3.1-2.4,6.1-4.1,9.1
		c-1.3,2.7-2.9,5.2-4.9,7.6c-2,2.4-4.4,4.6-7.3,6.4c-2.9,1.8-6.3,3.1-10.1,3.9c-3.8,0.8-8.2,0.9-13.1,0.2c-6.5-0.6-11.9-2.3-16.2-5
		c-4.3-2.7-7.8-6.2-10.5-10.3c-2.7-4.2-4.8-8.9-6.1-14.2c-1.4-5.3-2.4-10.8-2.9-16.6c-0.6-5.7-0.9-11.5-1-17.3
		c-0.1-5.8-0.1-11.3-0.1-16.5v-10.3c0-1.6,0.4-2.9,1.1-4c0.7-1.1,1.7-1.9,2.8-2.5c1.1-0.6,2.4-1,3.8-1.3c1.4-0.3,2.8-0.4,4.1-0.4
		h10.3c1.7,0,3.3,0,4.9,0.1c1.6,0.1,3.1,0.2,4.5,0.4c1.4,0.2,2.5,0.6,3.4,1.1C365.3,142.7,365.9,143.4,366.2,144.4z"/>
	<path class="st0" d="M474.6,146.1c1.4,0.5,2.7,1.2,4,2.1c1.3,0.9,2.3,1.9,3.1,2.9c0.8,1,1.3,2,1.6,3c0.3,1,0.1,1.8-0.4,2.5
		c-1.3,1.5-2.8,2-4.7,1.7c-1.9-0.4-3.5-0.9-5-1.7c-0.3,0-1.2-0.4-2.7-1.2c-1.5-0.8-3.3-1.5-5.3-2.2c-2.1-0.7-4.2-1.1-6.5-1.2
		c-2.3-0.1-4.4,0.5-6.3,1.9c-2,1.4-3.4,3.1-4.1,5.1c-0.7,2-1,4-0.9,6c0.2,2,0.7,3.9,1.6,5.7c0.9,1.8,2,3.2,3.4,4.1
		c4.2,4,8.1,7.4,11.6,10s6.6,5.1,9.2,7.3c2.6,2.2,4.7,4.6,6.4,7c1.6,2.4,2.8,5.5,3.4,9.2c1.3,6.4,0.9,11.7-1,16
		c-2,4.3-4.9,7.7-8.8,10.1c-3.9,2.4-8.4,4.1-13.5,4.9c-5.1,0.8-10.1,1-15,0.6c-4.9-0.5-9.3-1.5-13.3-3.2c-4-1.6-6.8-3.7-8.5-6.1
		c-0.1-0.2-0.5-0.7-1-1.5c-0.6-0.8-1.1-1.7-1.6-2.8c-0.5-1.1-0.8-2.1-1-3.3c-0.2-1.1,0.2-2.1,1-2.9c1.1-1.1,2-1.6,2.9-1.7
		c0.8-0.1,1.6,0.1,2.3,0.5c0.7,0.4,1.3,1,1.8,1.8c0.5,0.8,1,1.6,1.3,2.3c1.3,1.9,3.3,3.4,6,4.6c2.8,1.2,5.6,1.7,8.5,1.6
		c2.9-0.1,5.6-1,8-2.5c2.4-1.6,3.8-4.2,4.2-7.8c0-4-0.9-7.1-2.7-9.2c-1.8-2.1-4-3.9-6.6-5.3c-2.6-1.4-5.4-2.8-8.3-4.1
		c-2.9-1.3-5.5-3-7.9-5.3c-3-2.3-5.5-4.6-7.6-6.8c-2.1-2.2-3.8-4.6-5.1-7.2c-1.3-2.7-2.1-5.7-2.5-9.2c-0.4-3.4-0.2-7.6,0.4-12.5
		c0.4-4,2.7-7.6,6.7-10.6c4-3,9-5.2,14.8-6.6c5.8-1.4,12.2-1.8,19-1.4C462.2,141.4,468.6,143.2,474.6,146.1z"/>
	<path class="st0" d="M547.1,153.3c-0.2,0.3-0.4,1.3-0.5,2.9c-0.1,1.6-0.2,3.7-0.2,6.3s0,5.4,0.1,8.4c0.1,3.1,0.1,6.2,0.2,9.3
		c0.1,3.1,0.2,6.2,0.2,9.1c0.1,2.9,0.1,5.4,0.1,7.6v34.4c0,1.4-0.1,2.9-0.3,4.6c-0.2,1.7-1,2.8-2.2,3.3c-0.5,0.2-1.6,0.4-3.1,0.5
		c-1.5,0.1-3.3,0.2-5.4,0.2c-2.1,0.1-4.3,0.1-6.6,0.1c-2.3,0-4.5,0-6.6-0.1c-2.1-0.1-3.8-0.1-5.3-0.2c-1.5-0.1-2.4-0.1-2.9-0.1
		c-2.1,0-3.8-0.3-4.9-0.8c-1.2-0.5-1.8-2-1.8-4.5v-25.1v-55.2c0-0.4-0.8-0.7-2.3-0.8c-1.5-0.1-3.3-0.1-5.3-0.1
		c-2,0.1-3.8,0.1-5.6,0.2s-2.8,0-3.1-0.1c-1.6-0.1-2.8-0.3-3.6-0.6c-0.8-0.3-1.3-0.7-1.6-1.2c-0.3-0.5-0.4-1.3-0.3-2.3
		c0.1-1,0.1-2.3,0.1-3.9c0.6-1,1.4-1.6,2.2-2c0.8-0.4,1.7-0.6,2.6-0.6c0.9-0.1,1.8,0,2.8,0.1c1,0.1,1.9,0.2,2.9,0.2h64.8
		c1.7,0,3,0,4.1,0.1c1,0.1,1.8,0.2,2.4,0.6c0.6,0.3,1,0.9,1.2,1.6c0.2,0.7,0.3,1.8,0.3,3c0,1.2-0.3,2.1-0.9,2.7
		c-0.6,0.6-1.3,1.1-2.1,1.5c-0.8,0.4-1.6,0.6-2.5,0.7c-0.9,0.1-1.7,0.2-2.5,0.2c-2.5,0-5.1-0.2-7.6-0.5
		C551.4,152.5,549.2,152.6,547.1,153.3z"/>
	<path class="st0" d="M597.1,143.3c7.6-0.4,14.3-0.2,20.1,0.7c5.7,0.9,10.7,2.6,14.9,5.1c4.2,2.5,7.7,5.8,10.6,9.8
		c2.9,4,5.2,9,7,14.8c0.7,2.4,1.3,4.7,1.7,6.8c0.4,2.1,0.6,4.3,0.6,6.8c0.1,2.4,0,5.2-0.2,8.4s-0.5,6.9-0.9,11.4
		c-0.7,5.7-2.7,11-5.9,15.9c-3.2,4.9-7.2,9-12.1,12.3c-4.9,3.3-10.4,5.8-16.6,7.2c-6.2,1.5-12.6,1.7-19.3,0.6
		c-6.7-1-12.8-3.2-18.4-6.7c-5.6-3.5-10.3-8-14.1-13.5c-2.3-3.1-4.1-6.8-5.4-11.1s-2.1-8.8-2.5-13.4c-0.4-4.6-0.3-9.2,0.3-13.8
		c0.6-4.6,1.6-8.8,3.1-12.7c1.6-3.5,3.7-6.9,6.2-10.2c2.5-3.3,5.4-6.2,8.6-8.8c3.2-2.6,6.7-4.8,10.4-6.5
		C589.2,144.6,593.1,143.6,597.1,143.3z M628.2,159.2c-1.6-1.4-3.8-2.6-6.6-3.8c-2.8-1.2-5.6-2-8.4-2.5c-2.8-0.5-5.2-0.5-7.3-0.2
		c-2.1,0.4-3.4,1.4-3.8,3.1c-0.4,2.4-0.6,5.4-0.6,9c0,3.6,0.1,7.3,0.2,11.4c0.2,4,0.3,8.2,0.5,12.5s0.2,8.4,0.1,12.2
		c-0.1,2.1-0.2,4.7-0.3,7.6c-0.1,3,0,5.9,0.4,8.7c0.4,2.8,1.1,5.3,2.1,7.5c1.1,2.2,2.8,3.5,5.1,3.9c5.2,1.1,9.8,0.6,13.8-1.4
		c4-2,7.3-4.9,9.9-8.9c2.7-4,4.6-8.6,5.8-13.9c1.2-5.3,1.7-10.7,1.4-16.2c-0.3-5.5-1.5-10.8-3.5-15.9
		C634.9,167.2,632,162.8,628.2,159.2z"/>
	<path class="st0" d="M717.4,146.1c1.4,0.5,2.7,1.2,4,2.1c1.3,0.9,2.3,1.9,3.1,2.9c0.8,1,1.3,2,1.6,3c0.3,1,0.1,1.8-0.4,2.5
		c-1.3,1.5-2.8,2-4.7,1.7c-1.9-0.4-3.5-0.9-5-1.7c-0.3,0-1.2-0.4-2.7-1.2c-1.5-0.8-3.3-1.5-5.3-2.2c-2.1-0.7-4.2-1.1-6.5-1.2
		c-2.3-0.1-4.4,0.5-6.3,1.9c-2,1.4-3.4,3.1-4.1,5.1c-0.7,2-1,4-0.9,6c0.2,2,0.7,3.9,1.6,5.7c0.9,1.8,2,3.2,3.4,4.1
		c4.2,4,8.1,7.4,11.6,10c3.5,2.7,6.6,5.1,9.2,7.3c2.6,2.2,4.7,4.6,6.4,7c1.6,2.4,2.8,5.5,3.4,9.2c1.3,6.4,0.9,11.7-1,16
		c-2,4.3-4.9,7.7-8.8,10.1c-3.9,2.4-8.4,4.1-13.5,4.9c-5.1,0.8-10.1,1-15,0.6c-4.9-0.5-9.3-1.5-13.3-3.2c-4-1.6-6.8-3.7-8.5-6.1
		c-0.1-0.2-0.5-0.7-1-1.5c-0.6-0.8-1.1-1.7-1.6-2.8c-0.5-1.1-0.8-2.1-1-3.3c-0.2-1.1,0.2-2.1,1-2.9c1.1-1.1,2-1.6,2.9-1.7
		c0.8-0.1,1.6,0.1,2.3,0.5c0.7,0.4,1.3,1,1.8,1.8c0.5,0.8,1,1.6,1.3,2.3c1.3,1.9,3.3,3.4,6,4.6c2.8,1.2,5.6,1.7,8.5,1.6
		c2.9-0.1,5.6-1,8-2.5c2.4-1.6,3.8-4.2,4.2-7.8c0-4-0.9-7.1-2.7-9.2c-1.8-2.1-4-3.9-6.6-5.3c-2.6-1.4-5.4-2.8-8.3-4.1
		c-2.9-1.3-5.5-3-7.9-5.3c-3-2.3-5.5-4.6-7.6-6.8c-2.1-2.2-3.8-4.6-5.1-7.2c-1.3-2.7-2.1-5.7-2.5-9.2c-0.4-3.4-0.2-7.6,0.4-12.5
		c0.4-4,2.7-7.6,6.7-10.6c4-3,9-5.2,14.8-6.6c5.8-1.4,12.2-1.8,19-1.4C705.1,141.4,711.5,143.2,717.4,146.1z"/>
	<path class="st0" d="M809.1,217.9c0,1.6,0,3.4,0,5.3c0,2,0,3.9-0.1,5.8c-0.1,1.9-0.2,3.7-0.5,5.5c-0.3,1.8-0.7,3.3-1.4,4.5
		c-0.4,0.9-2.1,1.5-5.1,2c-3,0.5-6.2,0.7-9.6,0.7c-3.5,0-6.6-0.2-9.5-0.7c-2.9-0.5-4.6-1.2-5-2.3c-0.6-1.9-1-4.4-1-7.6
		c-0.1-3.1-0.1-6.4,0-9.9c0.1-3.4,0.1-6.8,0.2-9.9c0.1-3.2-0.1-5.8-0.4-7.8c-2.4-0.3-5.1-0.5-7.9-0.6c-2.8-0.1-5.7-0.1-8.7-0.1
		c-3,0-5.9,0-8.9-0.1c-3-0.1-5.8-0.2-8.6-0.6c-0.6,3-1,6.1-1,9.3c0,3.2,0.1,6.4,0.2,9.6c0.2,3.2,0.3,6.2,0.3,9.1
		c0.1,2.9-0.1,5.3-0.4,7.3c-0.2,1.4-0.8,2.3-1.8,2.8c-1,0.5-2.1,0.6-3.2,0.5s-2.1-0.7-2.9-1.5c-0.8-0.9-1.3-1.9-1.3-3.2
		c0-3.6-0.1-7.2-0.2-10.7c-0.1-3.5-0.1-7.9,0.2-13.2c0.2-6,0.4-12,0.6-17.9c0.2-5.9,0.6-11.5,1.4-17c0.7-5.4,2-10.4,3.7-15
		c1.7-4.6,4.2-8.7,7.5-12.2c2.1-2.4,4.9-4.6,8.3-6.5s7.5-2.9,12.3-2.9c6.7,0,12.4,1.1,17.3,3.2c4.8,2.1,8.9,5,12.1,8.8
		c3.2,3.7,5.8,8,7.7,13c1.9,4.9,3.3,10.3,4.2,16c0.9,5.7,1.5,11.7,1.7,17.8C809.3,205.8,809.3,211.9,809.1,217.9z M784.1,193.4
		c0-7.3-0.4-13.5-1.3-18.6c-0.9-5.1-2.1-9.2-3.7-12.4c-1.6-3.2-3.6-5.5-6-6.9c-2.3-1.4-5-2.1-8-2.1c-2,0-3.8,0.7-5.4,2.2
		c-1.6,1.5-3,3.4-4.2,5.9c-1.2,2.4-2.3,5.1-3.1,8.1c-0.8,3-1.6,5.9-2.1,8.9c-0.6,3-1,5.8-1.3,8.4c-0.3,2.7-0.4,4.8-0.4,6.5H784.1z"
		/>
</g>
</svg>
