<?xml version="1.0" standalone="no"?>
<!DOCTYPE svg PUBLIC "-//W3C//DTD SVG 20010904//EN"
 "http://www.w3.org/TR/2001/REC-SVG-20010904/DTD/svg10.dtd">
<svg version="1.0" xmlns="http://www.w3.org/2000/svg"
 width="700.000000pt" height="700.000000pt" viewBox="0 0 700.000000 700.000000"
 preserveAspectRatio="xMidYMid meet">
<metadata>
Created by potrace 1.11, written by Peter Selinger 2001-2013
</metadata>
<g transform="translate(0.000000,700.000000) scale(0.100000,-0.100000)"
fill="#000000" stroke="none">
<path d="M3469 6816 c-2 -2 -24 -6 -49 -9 -25 -3 -81 -13 -125 -21 -75 -14
-96 -18 -170 -31 -42 -8 -74 -24 -117 -61 -52 -46 -66 -51 -133 -49 -33 2 -74
-3 -92 -11 -31 -12 -37 -23 -45 -78 -2 -11 -29 -35 -64 -56 -34 -20 -76 -52
-95 -70 -38 -36 -102 -69 -136 -70 -41 0 -53 11 -53 47 0 49 -16 73 -48 73
-41 0 -69 -25 -101 -88 -16 -31 -43 -70 -59 -85 -32 -30 -91 -45 -136 -33 -28
7 -76 53 -76 73 0 7 -17 25 -37 40 -31 24 -46 28 -99 28 -75 0 -107 -19 -145
-89 -58 -105 -108 -126 -285 -119 -126 5 -170 -7 -200 -52 -22 -34 -22 -116
-1 -197 17 -64 16 -144 -3 -174 -7 -10 -30 -31 -51 -47 -43 -29 -58 -59 -66
-123 -6 -50 13 -95 63 -147 20 -20 37 -44 39 -54 1 -10 -16 -37 -41 -63 -79
-82 -105 -181 -68 -255 24 -49 58 -72 111 -78 26 -3 57 -15 79 -32 20 -15 62
-35 93 -44 44 -13 59 -23 70 -46 18 -37 16 -91 -3 -111 -21 -21 -11 -39 34
-59 78 -35 192 3 262 88 24 28 43 53 44 56 1 3 9 25 19 48 15 35 23 42 54 48
42 8 60 21 72 52 5 13 21 28 36 34 16 6 37 19 49 30 20 18 23 19 60 3 29 -12
55 -15 106 -10 76 7 80 5 135 -81 61 -95 95 -121 166 -128 23 -2 45 -4 49 -4
19 -2 58 -56 77 -106 12 -31 28 -66 37 -79 8 -13 17 -50 20 -82 6 -59 63 -191
89 -207 21 -12 35 -67 34 -137 -1 -62 0 -65 38 -100 22 -19 56 -48 77 -64 29
-22 52 -58 106 -170 73 -152 73 -152 174 -186 61 -21 92 -41 161 -104 22 -20
76 -55 120 -77 95 -48 121 -70 144 -124 10 -22 26 -59 36 -82 21 -50 33 -62
100 -98 28 -15 77 -48 110 -72 112 -83 151 -96 283 -98 98 -1 124 -5 163 -24
96 -46 179 -164 181 -258 1 -44 1 -44 32 -37 62 14 92 12 128 -9 36 -20 51
-41 57 -86 0 -5 43 4 94 20 50 16 99 29 108 29 21 0 44 -27 60 -72 14 -40 7
-91 -23 -171 -29 -75 5 -117 94 -117 57 0 107 -15 123 -37 12 -17 17 -16 94
10 44 15 87 27 96 27 23 0 42 -40 49 -102 8 -76 24 -142 51 -204 13 -29 26
-71 30 -95 4 -24 17 -65 30 -90 22 -42 27 -63 39 -144 2 -16 7 -49 11 -72 6
-35 4 -43 -13 -52 -11 -6 -30 -11 -42 -11 -33 0 -75 -26 -88 -55 -15 -32 -6
-92 15 -104 28 -15 7 -124 -30 -163 -7 -7 -23 -30 -36 -51 -21 -34 -22 -41
-11 -87 6 -27 18 -54 26 -61 8 -7 56 -11 123 -12 l110 0 43 46 c24 26 66 62
93 79 59 39 81 79 89 163 24 262 28 280 74 310 28 18 55 25 107 28 86 6 97 10
118 46 23 39 21 77 -4 118 -22 35 -22 55 -4 140 7 28 4 34 -25 51 -17 11 -55
23 -83 27 -67 8 -87 20 -131 77 -19 26 -45 57 -56 68 -28 28 -25 64 10 103 37
42 37 60 5 99 -14 16 -25 39 -25 50 0 11 23 43 51 71 28 29 59 69 70 90 11 20
24 38 29 38 6 1 16 2 23 3 6 2 28 -4 47 -12 70 -29 122 -41 190 -46 81 -5 167
-45 186 -86 77 -169 83 -175 172 -187 32 -4 49 -13 65 -34 26 -36 64 -39 77
-5 8 21 6 71 -5 102 -2 7 10 37 27 69 50 96 31 151 -82 228 -25 17 -49 37 -55
44 -5 7 -26 21 -45 31 -25 12 -42 32 -61 72 -15 31 -33 60 -40 66 -24 19 -102
45 -149 51 -121 14 -266 71 -385 150 -33 22 -74 47 -92 56 -25 13 -143 50
-198 62 -119 25 -202 89 -212 162 -5 38 -3 40 28 53 57 23 88 52 95 86 12 67
-38 101 -134 90 -149 -17 -170 -18 -190 -7 -18 10 -30 7 -67 -12 -24 -14 -55
-23 -67 -22 -13 1 -33 3 -45 4 -12 0 -45 21 -73 46 -28 25 -67 53 -88 64 -20
11 -57 39 -82 63 -25 24 -70 63 -100 88 -30 24 -75 63 -100 87 -25 23 -64 56
-87 72 -69 49 -89 113 -65 203 8 32 6 46 -17 95 -15 32 -37 96 -50 142 -12 46
-30 96 -41 112 -19 26 -245 174 -475 312 -61 36 -123 76 -139 88 -39 30 -56
75 -48 124 12 75 8 120 -16 149 -27 36 -28 76 -2 104 16 17 32 22 75 22 61 0
66 6 61 81 -2 34 -11 57 -33 85 -60 78 -66 111 -32 188 22 52 62 82 119 92 97
16 151 38 200 80 28 24 57 41 65 38 7 -3 35 4 61 15 59 26 57 27 96 -8 35 -31
65 -40 85 -28 15 9 -2 63 -22 70 -7 3 -19 23 -25 44 -7 21 -21 49 -30 63 -10
14 -25 46 -34 72 -14 41 -14 52 -1 88 12 34 12 46 0 80 -18 52 -11 90 25 120
46 38 34 99 -25 127 -23 11 -100 8 -150 -6 -18 -5 -75 -8 -127 -6 -164 5 -254
55 -312 174 -17 35 -42 72 -56 82 -22 16 -111 34 -121 25z"/>
<path d="M2165 3179 c-16 -4 -45 -24 -63 -44 -19 -19 -40 -35 -48 -35 -22 0
-74 -29 -74 -41 0 -25 -43 -68 -87 -89 -65 -31 -104 -32 -185 -4 -85 30 -94
30 -114 -1 -17 -26 -30 -181 -18 -218 3 -9 30 -35 59 -57 49 -36 54 -44 65
-96 16 -78 8 -152 -24 -206 -33 -56 -33 -85 -1 -132 31 -46 31 -61 0 -133 -19
-42 -23 -63 -17 -82 5 -14 7 -85 5 -157 -2 -109 0 -141 16 -187 46 -133 119
-190 175 -138 12 11 35 22 53 25 72 13 99 35 138 111 11 22 32 47 47 55 25 13
33 13 95 -8 76 -25 90 -24 126 3 26 19 35 42 67 165 19 73 20 163 6 355 -4 41
0 57 21 87 l25 37 -26 57 c-14 31 -26 64 -26 73 0 9 16 40 35 68 38 56 52 106
50 168 -4 74 -16 104 -54 137 -33 29 -39 41 -45 88 -9 77 -68 160 -139 195
-16 8 -31 15 -31 14 -1 0 -14 -5 -31 -10z"/>
<path d="M5190 1270 c-14 -4 -56 -28 -93 -54 -38 -25 -78 -47 -90 -47 -12 -1
-74 -2 -137 -4 -126 -2 -136 -4 -198 -35 -51 -25 -71 -28 -188 -34 -50 -2
-100 -9 -112 -15 -33 -17 -64 -13 -104 14 -36 25 -45 43 -63 128 -8 39 -44 54
-95 38 -38 -11 -100 -65 -100 -87 0 -5 -9 -20 -21 -33 -20 -21 -22 -21 -47 -5
-15 9 -35 25 -45 35 -29 30 -69 24 -118 -20 -42 -37 -46 -45 -84 -175 -46
-163 -44 -176 31 -217 44 -25 96 -36 170 -38 12 -1 37 -12 57 -25 30 -21 78
-34 125 -36 7 0 39 -25 72 -55 51 -47 65 -55 99 -55 44 0 101 -39 101 -69 0
-9 6 -26 14 -36 11 -16 29 -19 118 -20 132 -3 153 -13 215 -107 66 -100 72
-103 273 -124 19 -2 57 -4 85 -5 63 -1 85 22 85 90 0 38 7 55 40 98 50 67 56
90 35 152 -9 28 -15 67 -13 87 2 25 -3 40 -15 49 -31 23 -37 67 -16 126 31 89
130 469 125 478 -6 10 -71 10 -106 1z"/>
</g>
</svg>
