<?xml version="1.0" encoding="utf-8"?>
<!-- Generator: Adobe Illustrator 22.0.1, SVG Export Plug-In . SVG Version: 6.00 Build 0)  -->
<svg version="1.1" id="Laag_1" xmlns="http://www.w3.org/2000/svg" xmlns:xlink="http://www.w3.org/1999/xlink" x="0px" y="0px"
	 viewBox="0 0 841.9 420.3" style="enable-background:new 0 0 841.9 420.3;" xml:space="preserve">
<style type="text/css">
	.st0{fill:#EDC040;}
	.st1{fill:#08090A;}
</style>
<g>
	<path class="st0" d="M606.4,243.5c-0.7-1-1.8-1.3-2.7-2c-1.2-1-1.1-1.8-1.1-3.3c0-2.3-0.6-3.7-2-5.6c-1.3-1.8-2.7-3.6-4.6-4.7
		c-1.9-1-4.6-1.1-6.1,0.5c-0.6,0.6-1,1.4-1.6,2c-1.5,1.4-4.2,1-5.5,2.7c-0.5,0.6-0.6,1.5-1,2.3c-1,1.9-3.1,2.9-5.1,3.7
		c-1,0.4-2.1,0.8-3.2,0.9c-1.1,0-2.2-0.3-3.3-0.7c-1.4-0.5-2.9-1-4.3-1.4c-0.8-0.2-1.6-0.5-2.4-0.3c-1.4,0.4-1.8,2.2-2,3.6
		c-0.3,2.6-0.4,5.2-0.2,7.9c0,0.6,0.1,1.4,0.4,1.9c0.8,1.8,3.2,2.2,4.7,3.5c1.8,1.6,2.1,4.4,2.2,6.9c0.1,2.2,0.2,4.6-0.9,6.5
		c-0.5,1-1.3,1.8-1.8,2.8c-0.8,1.8-0.5,3.9,0.7,5.5c0.5,0.6,1.2,1.1,1.4,1.9c0.3,1-0.1,1.9-0.4,2.8c-0.9,2.1-1.7,4.1-2.6,6.2
		c1.1-0.2,1.4,1.5,1.2,2.7c-1.2,7.5-1,15.9,3.8,21.8c0.7,0.9,1.5,1.7,2.6,2.1c1,0.4,2.4,0.2,3.1-0.6c0.4-0.4,0.6-1,1-1.4
		c0.5-0.3,1-0.2,1.6-0.2c2.6-0.1,5.1-1.5,6.3-3.7c1-1.8,1.5-4.2,3.4-5.1c3.2-1.7,6.9,2.5,10.4,1.4c2.3-0.7,3.4-3.5,4-5.8
		c1-3.9,2.2-8,2.2-12c0-4.3-1.2-8.6-0.9-12.9c0.1-0.6,0.2-1.2,0.4-1.7c0.3-0.6,1-0.9,1.3-1.4c0.9-1.2,0.3-2.9-0.4-4.3
		c-0.7-1.3-1.7-2.7-1.5-4.2c0.2-1.7,1.6-2.9,2.6-4.3c1.7-2.3,2.2-5.4,1.8-8.2C607.8,247.3,607.5,245,606.4,243.5z"/>
	<path class="st0" d="M831.5,265.2c1.8-2.5,1.7-6.1-0.2-8.4c-2.2-2.8-6.3-3.7-8.2-6.8c-1.3,0.2-3.1-1-3.6-2.2
		c-0.6-1.2-0.8-2.6-1.4-3.7c-2-3.7-7-4.2-11.2-4.8c-5.4-0.8-10.5-2.7-15.1-5.6c-3-1.8-5.8-4.2-9-5.5c-3.7-1.6-7.8-1.9-11.6-3.1
		c-3.9-1.2-7.7-3.6-8.8-7.5c-0.2-1-0.3-2.1,0.4-2.8c0.5-0.5,1.1-0.6,1.8-0.8c2.7-0.8,5.4-3.5,4.5-6.3c-0.9-3-4.9-3.5-7.9-2.9
		s-6.2,1.9-9,0.6c-0.7-0.3-1.4-0.8-2.2-0.6c-0.5,0.2-0.8,0.5-1.1,0.8c-2.7,2.3-7.2,2.1-9.6-0.5c-0.6-0.6-1-1.4-1.8-2
		c-0.8-0.7-1.9-1.2-2.9-1.7c-0.4-0.2-0.9-0.5-1.3-0.8c-3.3-2.2-5.8-5.7-9.2-8c-3.2-2.2-5.7-5.8-9.1-7.6c-3.4-1.8-4.4-4.7-4.4-8.6
		c1-1.5,1.4-3.6,0.7-5.3c-0.6-1.7-1.7-3.2-2.3-4.9c-1.4-3.5-1.2-7.7-3.5-10.6c-1-1.1-2.2-2-3.5-2.8c-8.4-5.6-17.1-11-25.9-16
		c-2.2-1.2-4.6-2.7-5.2-5.1c-0.8-3.1,1.7-6.7,0.2-9.6c-0.6-1-1.5-1.8-2-2.7c-1-1.9,0.3-4.7,2.4-5.1c1.8-0.4,4.1,0.6,5.6-0.5
		c-0.3-2.3,0.7-5-0.5-7.1c-0.5-0.8-1.2-1.4-1.8-2.1c-1-1-1.8-2.2-2.2-3.6c-0.6-2.3,0.5-4.7,1.5-6.8c0.2-0.4,0.4-0.8,0.7-1.2
		c0.4-0.5,1-0.8,1.5-1.1c2.2-1.1,4.7-1.4,7.1-1.8c2.4-0.5,4.9-1.3,6.4-3.2c0.4-0.5,0.6-1,1.1-1.4c1.5-1.3,3.9-0.6,5.6-1.4
		c1-0.4,1.8-1.3,2.9-1.4c1-0.1,1.8,0.6,2.5,1.3c0.6,0.7,1.2,1.5,2.1,2c0.8,0.5,2.1,0.5,2.7-0.3c0.6-0.8,0.2-1.9-0.5-2.7
		c-0.6-0.7-1.5-1.3-2.1-2.1c0.1-1.8-1.1-3.4-2.2-4.9c-0.6-1-1.2-2.2-1.7-3.4c-0.2-0.6-0.4-1.2-0.4-1.8c0-0.9,0.4-1.7,0.6-2.5
		c0.2-0.9,1-2,0.6-2.8c-1-2.4-1.9-5.5,0.1-7.2c0.5-0.4,1-0.6,1.5-1c1.9-1.7,0.4-5.2-2.1-6.1s-5.1-0.1-7.7,0.4
		c-4.2,0.7-8.5,0.6-12.6-0.4c-3.8-0.9-7.6-2.7-9.5-6.1c-1.1-2-1.5-4.5-3.2-6.2c-2.4-2.4-6.4-2-9.8-1.4c-5.1,1-10.1,1.8-15.2,2.8
		c-1.4,0.2-2.9,0.6-4.1,1.3c-1.8,1.1-3.1,3.1-5,4.1c-0.2,0.1-0.3,0.2-0.6,0.2c-1.8,0.6-3.9,0.1-5.9,0c-1.9-0.1-4.3,0.6-4.8,2.6
		c-0.2,0.8,0,1.8-0.2,2.6c-0.5,1.4-2.2,1.9-3.5,2.6c-2.6,1.2-4.4,3.5-6.7,5.1s-5.3,3-7.8,1.8c-0.2-1.5-0.4-3.1-0.6-4.7
		c-1-2.1-4.3-1.4-5.8,0.3c-1.4,1.8-1.9,4.2-3.2,6.1c-1.4,2-3.5,3.4-5.9,3.6c-1.8,0.2-3.9-0.2-5.2-1.6c-0.9-1-1.4-2.2-2-3.2
		c-2.9-4.3-10.3-4.4-13.3-0.2c-1,1.4-1.5,3.1-2.5,4.5c-2.7,3.8-8.2,4.2-12.9,3.6c-3.6-0.4-7.9-1-10.4,1.6c-2.7,2.7-1.8,7.2-0.8,10.9
		s1.7,8.3-1.1,10.8c-1.7,1.5-4.7,2.6-4.3,4.8c-1.3,2-1.4,4-0.5,6.3c1,2.2,2.6,4,4.3,5.7c0.4,0.4,0.9,0.8,1,1.4c0.3,1.2-1,2.2-1.9,3
		c-2.4,1.8-4.1,4.6-4.8,7.6c-0.9,3.9,0.7,9,4.7,10c1.2,0.3,2.5,0.2,3.7,0.6c2,0.6,3.4,2.7,5.3,3.4c1.4,0.5,3,0.3,4.3,1
		c1.4,0.7,2.2,2.4,2.2,4.1c0.1,1.6-0.4,3.2-0.9,4.7c0-0.5,0.1-1,0.1-1.5c-0.6,0.2-0.9,0.7-0.8,1.3c0.2,0.9,1,1.4,1.8,1.8
		c0.7,0.4,1.5,0.7,2.2,1c0.5,0.2,0.9,0.3,1.4,0.3c0.6,0,1.2-0.2,1.8-0.3c0.8-0.2,1.6-0.5,2.4-0.7c1.1-0.3,2.3-0.7,3.3-1.4
		c0.5-0.3,1-0.8,1.4-1.2c1.2-1.2,2.3-2.5,3.3-3.9c0.4-0.6,0.8-1.2,0.7-1.9c0.4-0.6,1-0.7,1-1.4c0-0.4,0-0.7,0.2-1.1
		c0.2-0.7,1-1.1,1.7-1.4c1.4-0.4,3.3-0.4,4.1-1.7c0.4-0.6,0.4-1.4,0.8-2c0.6-0.7,1.5-0.9,2.4-1.2c1.2-0.5,2.2-1.4,2.8-2.6
		c2.8,2,6.5,2.3,9.8,1.4c0.4-0.2,0.8-0.2,1.2-0.2c0.3,0.1,0.6,0.3,0.8,0.5c2.8,2.7,3.9,7,7,9.3c1.3,1,2.8,1.4,4.4,1.5
		c0.8,0,1.6-0.1,2.4,0.2c0.6,0.2,1.2,0.6,1.7,1c1,0.9,1.8,2,2.3,3.3c0.4,1,0.6,2.2,1,3.3c0.6,1.4,1.7,2.5,2.1,3.9
		c0.4,1.4,0.2,2.9,0.4,4.3c0.2,1.5,1,3,1.7,4.3c0.7,1.4,1.4,2.8,2.2,4.2c1.8,0.5,2.5,3.5,2.5,5.4s-0.4,3.9,0.3,5.7
		c1.3,3.1,5.2,3.9,7.3,6.3c0.8,1,1.4,2.1,1.8,3.2c0.1,0.2,0.2,0.3,0.2,0.6c1.2,2.7,2.5,5.4,3.7,8.1c0.6,1.2,1.1,2.5,2.1,3.4
		c1.9,1.8,5,1.8,7.5,3c3.5,1.4,5.7,4.7,8.8,6.8c3.4,2.2,7.8,3.1,10.2,6.3c2.3,3.1,2.3,8,5.5,10.3c0.9,0.6,2,1,3.1,1.5
		c5.4,2.5,9.5,8,15.4,8.8c2.4,0.3,4.9-0.2,7.4-0.2c8.8,0.1,16.6,8.8,15.5,17.7c2.2-1.1,4.9-1.8,7.3-1c2.4,0.7,4.4,3.2,3.9,5.7
		c3-1,6-1.9,9-2.8c0.1,0,0.2-0.1,0.3-0.1c0.6-0.2,1.1-0.3,1.8-0.2c1.1,0.2,1.8,1.4,2.2,2.5c0.7,1.7,1.3,3.5,1,5.2
		c-0.5,3.2-3.7,6.5-2,9.2c1.2,2,4.1,2,6.4,2c2.3-0.1,5.3,0.6,5.9,2.9c1.8-1,4-1.2,5.9-2.2c1.4-0.6,3-1.4,4.3-0.6
		c1,0.6,1.4,2,1.5,3.3c0.4,2.9,0.4,5.9,1.3,8.8c0.8,2.7,2.5,5.1,3,7.9c0.2,1.4,0.2,2.7,0.7,4c0.5,1.4,1.4,2.5,2,3.8
		c1.2,2.8,0.4,6.2,1.5,9.1c0.2,0.5,0.5,1,0.4,1.5c-0.1,1-1,1.6-1.8,1.8c-0.9,0.2-1.8,0.2-2.8,0.3c-1.8,0.4-3.4,1.9-3.8,3.8
		c-0.4,1.8,0.4,3.9,1.9,4.9c0.2,2.3-0.2,5.3-1.6,7.2c-1.4,2-3.6,3.8-3.6,6.2c0,0.7,0.2,1.4,0.4,2c0.4,1.2,0.8,2.5,1.6,3.5l0.1,0.1
		h12c0.2-0.2,0.3-0.3,0.5-0.5c1.5-1.7,2.8-3.5,4.7-4.8c1.5-1,3.5-1.7,4.7-3.1c1.4-1.6,1.8-3.9,1.9-6.2c0.4-3.8,0.7-7.5,1.1-11.2
		c0.1-1,0.2-1.8,0.5-2.7c1.1-3,4.7-4.4,7.9-4.3c1.5,0.1,3.1,0.4,4.4-0.3c1.3-0.6,2-2,2.5-3.4c0.2-0.7,0.6-1.4,0.5-2.2
		c-0.2-1.8-2-2.9-2.4-4.7c-0.3-1.3,0.2-2.6,0.6-3.8c0.4-1.2,0.6-2.7-0.2-3.7c-0.3-0.5-0.8-0.7-1.4-1c-2.7-1.2-6.1-0.7-8.6-2.2
		c-0.5-0.2-0.8-0.7-1-1.2c-0.8-1.8-2-3.3-3.5-4.7c-0.6-0.5-1.1-1-1.4-1.7c-0.8-1.6,0.2-3.5,1.6-4.7c0.6-0.6,1.4-1.1,1.6-2
		c0.2-1-0.5-1.8-1.2-2.6s-1.5-1.4-1.8-2.3c-0.2-0.9,0.2-1.8,0.9-2.6c0.6-0.7,1.4-1.2,2.2-1.8c1.8-1.4,3.1-3.4,3.9-5.5
		c0.4-1.2,2.2-1.5,3.4-1.3c1.3,0.2,2.4,1,3.5,1.6c1.6,0.8,3.4,1.3,5.1,1.4c1.8,0.1,3.5-0.1,5.2,0.2c1.6,0.3,3.1,1,4.4,1.8
		c1.1,0.6,2.3,1.4,2.9,2.6c0.5,1,0.5,2.2,1,3.2c0.3,0.7,0.8,1.3,1.2,1.9c0.6,1,1.2,2,1.5,3.1c1.6,1.1,3.9,1.6,5.9,1.7
		c0.4,0,0.9,0,1.2,0.2s0.5,0.4,0.7,0.7c0.3,0.4,0.6,0.9,1,1.3s0.7,0.9,1.2,1c1.1,0.5,2.3-0.5,2.7-1.6c0.3-1.1,0-2.3-0.2-3.5
		s-0.5-2.4-0.1-3.5C830.6,266.3,831.1,265.7,831.5,265.2z"/>
	<path class="st0" d="M749.2,353.1c0.2-0.7,0.6-1.4,0.9-2.2c0.2-0.4,0.3-0.7,0.5-1.1c0.6-1.4,1-2.9,1.4-4.3
		c1.6-6.2,3.2-12.5,4.9-18.6c-0.9-0.1-1.8-0.1-2.7-0.1c-1.5,0-3,0.2-4.3,0.8c-2.3,1-3.9,3.1-6.2,4.2l0,0c-0.3,0.2-0.6,0.2-0.9,0.4
		c-0.1,0-0.1,0.1-0.2,0.1c-0.3,0.1-0.6,0.2-0.9,0.2c-0.1,0-0.1,0-0.2,0.1c-0.3,0.1-0.6,0.2-1,0.2c0,0,0,0-0.1,0
		c-0.3,0.1-0.6,0.1-1,0.1c-0.1,0-0.1,0-0.2,0c-0.3,0-0.6,0-1,0.1c-0.1,0-0.2,0-0.2,0c-0.3,0-0.6,0-1,0h-0.1c-0.3,0-0.6,0-1,0
		c-0.1,0-0.1,0-0.2,0c-0.3,0-0.6,0-1-0.1c-0.4,0-0.7-0.1-1.1-0.1c-0.1,0-0.1,0-0.2,0c-0.2,0-0.3,0-0.5,0l0,0
		c-2.4-0.2-4.8-0.2-7.1,0.7c-1.4,0.6-2.7,1.4-4.1,2c-4.6,1.8-10.1-0.2-14.6,1.9c-2.7,1.3-5.6-0.6-7.2-3c-1.4-2.2,0.1-5.6-2.8-6.9
		c-0.8-0.4-1.8-0.3-2.7-0.2c-2.6,0.5-4.8,2.3-5.9,4.7c-0.4,1-0.7,2.1-1.7,2.5c-1.1,0.5-2.3-0.3-3.1-1.1c-0.8-0.9-1.6-1.9-2.8-2.2
		c-1.3-0.3-2.6,0.5-3.7,1.2c-1,0.7-2.1,1.4-2.7,2.5c-0.4,0.6-0.6,1.4-0.8,2.2c-1,3.7-2.1,7.4-3.2,11.1c-0.2,0.8-0.5,1.7-0.2,2.5
		c0.2,1,1,1.7,1.8,2.2c2.1,1.5,4.7,2.5,7.2,2.7c2.1,0.2,4.4-0.2,6.1,1c0.8,0.6,1.4,1.4,2.2,1.8c1.1,0.5,2.5,0.1,3.7,0.2
		c3.5,0.5,5.1,5.4,8.5,5.9c0.9,0.2,1.7,0,2.6,0.1c2,0.2,3.8,1.8,4.2,3.9c0.1,0.6,0.1,1.2,0.5,1.7s1,0.7,1.6,0.8
		c4.3,0.8,9.2-1.1,12.7,1.4c3.1,2.2,3.6,6.8,6.8,8.8c1.4,0.9,3.2,1.1,5,1.3c3.1,0.3,6.1,0.6,9.2,1c0.4,0.1,0.9,0.1,1.3,0.1
		c0.5,0,1,0,1.4-0.1c0.8-0.2,1.5-0.5,2.1-1c0.2-0.3,0.4-0.6,0.6-1c0.2-0.6,0.2-1.2,0.2-1.9c0-1-0.1-2.2,0.2-3.2
		c0.4-1.3,1.4-2.3,2.3-3.3c1-1,1.9-2,2.2-3.4c0-0.2,0.1-0.4,0.1-0.6c0.1-1.8-1-3.7-1.5-5.5c-0.2-0.6-0.2-1-0.2-1.6
		c0-0.3,0.1-0.7,0.2-1c0.2-0.4,0.4-0.9,0.2-1.3c-0.2-0.6-0.7-0.8-1.2-1.1c-1.3-0.9-1.7-2.7-1.4-4.3
		C748.9,353.9,749,353.5,749.2,353.1z"/>
</g>
<g>
	<path class="st1" d="M222.9,65.1c0.3,13.4,0.5,24.8,0.5,34.1c0.1,9.4,0.1,17.5,0,24.4s-0.2,12.9-0.3,17.9s-0.3,9.9-0.3,14.6
		c-0.1,4.7-0.1,9.6,0,14.8s0.3,11.2,0.5,18.1l20.1,0.4c2.4,0,4.4,0.4,5.8,1.1c1.4,0.7,2.5,1.6,3.1,2.7s1,2.3,1,3.6s-0.2,2.5-0.6,3.7
		c-0.4,1.3-1.9,2.2-4.3,2.8c-2.4,0.6-5.3,1-8.5,1.2s-6.5,0.3-9.8,0.2s-6-0.1-8.2-0.1c-9.4-0.3-17.3-0.3-23.9-0.1
		c-6.6,0.2-12,0.3-16.4,0.3s-7.8-0.2-10.4-0.6c-2.5-0.4-4.4-1.4-5.7-3s-2.1-3.8-2.5-6.8s-0.5-6.9-0.5-12c0-3.3,0-8.1,0-14.5
		s0-13.4,0-21.1s0-15.7-0.1-24.1c-0.1-8.3-0.1-16.3-0.2-23.9c-0.1-7.6-0.2-14.3-0.4-20.2s-0.4-10.3-0.5-13.2c-0.1-2.2,0-3.9,0.3-5.3
		c0.4-1.4,0.9-2.4,1.6-3.2c0.7-0.8,1.7-1.4,2.8-1.7c1.2-0.4,2.4-0.8,3.7-1.2c3-0.9,6.5-1.4,10.6-1.5c4-0.1,8.2-0.1,12.5,0.1
		s8.6,0.5,12.7,1c4.2,0.4,7.9,0.9,11.2,1.5c3,0.6,4.8,1.9,5.4,3.9C222.6,61.1,222.9,63.1,222.9,65.1z"/>
	<path class="st1" d="M368.9,173.9c0,2.2,0,4.6,0,7.2c0,2.7,0,5.3-0.1,7.9s-0.3,5.1-0.6,7.5c-0.4,2.4-1,4.4-1.8,6.2
		c-0.6,1.2-2.9,2.1-6.9,2.7c-4,0.7-8.4,1-13.1,1s-9-0.3-13-1c-4-0.6-6.2-1.7-6.8-3.1c-0.9-2.6-1.3-6-1.4-10.3
		c-0.1-4.2-0.1-8.7,0-13.4s0.1-9.2,0.2-13.5s-0.1-7.8-0.5-10.6c-3.3-0.4-6.9-0.7-10.7-0.8c-3.8-0.1-7.7-0.1-11.8-0.1
		c-4,0-8.1,0-12.1-0.1s-7.9-0.3-11.7-0.8c-0.9,4-1.3,8.2-1.3,12.6s0.1,8.7,0.3,13.1c0.2,4.3,0.4,8.4,0.4,12.3
		c0.1,3.9-0.1,7.2-0.5,9.9c-0.3,1.9-1.1,3.1-2.5,3.8c-1.4,0.6-2.8,0.9-4.3,0.6c-1.5-0.2-2.8-0.9-4-2c-1.2-1.2-1.7-2.6-1.7-4.3
		c0-4.9-0.1-9.7-0.2-14.5c-0.1-4.7-0.1-10.7,0.2-17.9c0.3-8.2,0.5-16.3,0.8-24.3c0.2-8,0.8-15.7,1.8-23s2.7-14.1,5-20.4
		s5.7-11.8,10.1-16.5c2.9-3.3,6.6-6.3,11.2-8.9s10.1-3.9,16.6-3.9c9.1,0,16.9,1.4,23.4,4.3s12,6.8,16.4,11.9
		c4.4,5,7.9,10.9,10.5,17.6s4.5,13.9,5.7,21.7s2,15.8,2.3,24.2C369.2,157.5,369.2,165.7,368.9,173.9z M327,140.7
		c0-9.9-0.6-18.4-1.7-25.3c-1.2-6.9-2.8-12.5-5.1-16.8c-2.2-4.3-4.9-7.4-8.1-9.4c-3.2-1.9-6.8-2.9-10.8-2.9c-2.7,0-5.2,1-7.3,3
		c-2.2,2-4.1,4.7-5.7,8c-1.7,3.3-3.1,7-4.2,11c-1.2,4-2.1,8.1-2.9,12.1s-1.4,7.8-1.7,11.4c-0.4,3.6-0.5,6.6-0.5,8.9L327,140.7
		L327,140.7z"/>
	<path class="st1" d="M117.6,294.8c-1.9,0.3-3.3-0.2-4.4-1.6s-1.6-2.8-1.6-4.4c0-1,0.4-2.2,1.1-3.7c0.7-1.4,1.9-2.1,3.5-1.9
		c8.9-0.4,15.9-0.3,20.9,0.3c5,0.6,8.8,2.1,11.3,4.2c2.5,2.2,4.1,5.2,4.9,9.2c0.7,4,1.2,9,1.5,15.2c0.3,4,0.2,7.6-0.3,10.7
		s-1.8,6.9-3.8,11.6c-1.4,3.2-3.9,5.9-7.2,8.3c-3.4,2.4-7.4,4.4-12,5.9c-4.6,1.6-9.6,2.7-15.1,3.5c-5.5,0.7-10.9,1-16.4,1
		c-5.5-0.1-10.8-0.6-15.9-1.5s-9.6-2.2-13.5-3.8c-7.2-3-13.8-7-19.7-11.9s-10.9-10.5-15.1-17c-4.2-6.4-7.5-13.5-9.8-21.4
		c-2.4-7.8-3.6-16.2-3.6-24.9c0-14.8,2.6-27.5,7.9-37.9s12.4-18.6,21.5-24.6s19.7-9.8,31.9-11.3c12.2-1.6,25.1-0.9,38.8,1.9
		c1.7,0.4,3.7,1.2,6,2.3s4.6,2.3,7,3.8c2.4,1.4,4.6,2.9,6.7,4.3c2.1,1.4,3.8,2.7,5.1,3.9c0.3,0.3,0.8,0.8,1.6,1.5s1.5,1.6,2.1,2.7
		s0.9,2.3,0.9,3.6s-0.5,2.6-1.5,3.9c-0.3,1-0.9,1.7-1.7,2c-0.9,0.4-1.8,0.5-2.9,0.3c-1.1-0.1-2.1-0.5-3.1-1s-1.8-1.1-2.4-1.8
		c-1.7-2-3.7-3.7-5.9-5.2c-2.2-1.4-4.6-2.6-7-3.5c-2.5-0.9-4.9-1.5-7.2-2.1c-2.4-0.5-4.6-0.8-6.6-0.8c-8.6-0.3-15.5,1.1-20.6,4.1
		s-7.7,7.8-7.7,14.5c-0.6,2.3-0.9,5.7-0.9,10.3c0,4.5,0.1,9.4,0.3,14.6c0.2,5.2,0.5,10.3,0.9,15.4s0.5,9.3,0.5,12.4
		c0,4.5,0.1,9.5,0.4,15.1s0.9,11,1.8,16.1s2.3,9.5,4.2,13.2c1.9,3.7,4.5,5.7,8,6.2c6,0.7,12.1,0.6,18.2-0.3c6.1-0.9,11.8-3.9,17-9
		c2.3-2.3,3.6-4.8,4-7.3c0.4-2.6,0.5-5.8,0.3-9.5c-0.3-4.9-1-8.3-2.1-10.4c-1.1-2-2.6-3.3-4.4-3.9c-1.9-0.6-4.1-0.8-6.7-0.6
		C124.1,295.6,121.1,295.4,117.6,294.8z"/>
	<path class="st1" d="M210.9,219c1.6,4.3,2.4,9.9,2.6,16.8c0.1,6.9,0.1,14.3,0,22.2s-0.2,15.9-0.2,24s0.6,15.3,1.7,21.8
		c1.2,6.5,3.2,11.8,6,15.9c2.9,4.1,7.2,6.2,13,6.2c4.6-0.6,8.3-3.1,11.1-7.5s4.9-9.7,6.4-16c1.4-6.3,2.4-13.2,2.8-20.7
		c0.4-7.6,0.6-14.8,0.5-21.8s-0.3-13.3-0.5-19c-0.3-5.7-0.4-9.9-0.4-12.6c0-2.3,0.2-4.4,0.6-6.3c0.3-1.6,0.8-3,1.4-4.3
		s1.6-1.9,2.9-1.9c2.6,0,4.6,0.2,6,0.7c1.4,0.4,2.5,1.2,3.2,2.2s1.2,2.4,1.3,4.3c0.1,1.9,0.2,4.2,0.2,6.9V264c0,6.6-0.1,12.6-0.4,18
		s-0.8,10.4-1.5,15.1s-1.8,9.1-3.2,13.3c-1.4,4.2-3.3,8.3-5.6,12.3c-1.7,3.6-3.9,7.1-6.6,10.4c-2.7,3.3-6,6.2-9.9,8.6
		c-4,2.5-8.5,4.2-13.7,5.3c-5.2,1.1-11.1,1.2-17.7,0.3c-8.8-0.9-16.1-3.1-21.9-6.8c-5.8-3.7-10.6-8.3-14.3-14s-6.4-12.1-8.3-19.3
		c-1.9-7.2-3.2-14.7-4-22.5s-1.2-15.6-1.3-23.4c-0.1-7.8-0.1-15.3-0.1-22.4v-14c0-2.2,0.5-4,1.5-5.4s2.3-2.6,3.8-3.3
		c1.5-0.8,3.2-1.4,5.2-1.7c1.9-0.4,3.8-0.5,5.5-0.5h14c2.3,0,4.5,0,6.7,0.1s4.2,0.3,6,0.5c1.9,0.3,3.4,0.8,4.6,1.5
		C209.7,216.7,210.5,217.7,210.9,219z"/>
	<path class="st1" d="M358,221.4c1.9,0.7,3.7,1.7,5.4,2.9c1.7,1.2,3.1,2.5,4.2,3.9s1.8,2.7,2.2,4.1c0.4,1.4,0.2,2.5-0.5,3.3
		c-1.7,2-3.9,2.8-6.4,2.3s-4.8-1.3-6.8-2.3c-0.4,0-1.7-0.5-3.7-1.6s-4.4-2.1-7.2-3c-2.8-0.9-5.8-1.5-8.9-1.6s-5.9,0.7-8.5,2.6
		c-2.7,1.9-4.6,4.2-5.6,6.9s-1.4,5.5-1.2,8.2c0.2,2.7,0.9,5.3,2.2,7.8c1.2,2.5,2.8,4.3,4.6,5.6c5.8,5.5,11,10,15.8,13.6
		s8.9,6.9,12.4,9.9s6.4,6.2,8.6,9.5s3.8,7.5,4.6,12.5c1.7,8.6,1.3,15.9-1.4,21.7c-2.7,5.8-6.7,10.4-12,13.7
		c-5.3,3.3-11.4,5.5-18.4,6.7c-6.9,1.2-13.7,1.4-20.3,0.8c-6.6-0.6-12.6-2.1-18-4.3c-5.4-2.2-9.3-5-11.6-8.3c-0.1-0.3-0.6-1-1.4-2
		c-0.8-1.1-1.5-2.3-2.2-3.8c-0.6-1.4-1.1-2.9-1.3-4.4c-0.2-1.5,0.3-2.8,1.4-4c1.4-1.4,2.7-2.2,3.9-2.4c1.2-0.1,2.2,0.1,3.1,0.6
		c0.9,0.6,1.8,1.4,2.5,2.5s1.3,2.1,1.7,3.1c1.7,2.6,4.5,4.7,8.2,6.3c3.7,1.6,7.6,2.3,11.6,2.2c4-0.1,7.6-1.3,10.8-3.5
		c3.2-2.2,5.1-5.7,5.7-10.6c0-5.5-1.2-9.6-3.7-12.5c-2.4-2.9-5.4-5.3-9-7.2c-3.5-1.9-7.3-3.8-11.2-5.5c-4-1.7-7.5-4.1-10.7-7.1
		c-4-3.2-7.5-6.2-10.4-9.2s-5.2-6.2-6.9-9.8c-1.7-3.6-2.8-7.7-3.3-12.4c-0.5-4.7-0.3-10.3,0.5-16.9c0.6-5.5,3.6-10.3,9.1-14.4
		s12.2-7.1,20.1-9s16.5-2.5,25.8-1.8C341.2,215,349.9,217.4,358,221.4z"/>
	<path class="st1" d="M456.5,231.1c-0.3,0.4-0.5,1.8-0.6,4s-0.2,5.1-0.2,8.5s0,7.3,0.1,11.4c0.1,4.2,0.2,8.4,0.3,12.6
		c0.1,4.3,0.3,8.4,0.3,12.3c0.1,4,0.1,7.4,0.1,10.3v46.6c0,1.9-0.1,4-0.4,6.3s-1.3,3.8-3,4.5c-0.7,0.3-2.1,0.5-4.2,0.7
		c-2.1,0.1-4.5,0.3-7.3,0.3c-2.8,0.1-5.8,0.1-9,0.1s-6.2,0-9-0.1s-5.2-0.1-7.2-0.2s-3.3-0.1-3.9-0.1c-2.9,0-5.1-0.4-6.7-1.1
		s-2.4-2.7-2.4-6v-34.1v-74.9c0-0.6-1-0.9-3.1-1.1c-2.1-0.1-4.5-0.2-7.1-0.1c-2.7,0.1-5.2,0.1-7.6,0.2s-3.8,0-4.2-0.1
		c-2.2-0.1-3.8-0.4-4.9-0.8s-1.8-0.9-2.2-1.6c-0.4-0.7-0.5-1.8-0.4-3.1c0.1-1.4,0.1-3.1,0.1-5.3c0.9-1.3,1.9-2.2,3-2.7
		c1.2-0.5,2.3-0.8,3.6-0.9c1.2-0.1,2.5,0,3.8,0.1s2.6,0.2,3.9,0.2h87.9c2.3,0,4.1,0,5.5,0.1s2.4,0.3,3.2,0.8
		c0.8,0.4,1.3,1.2,1.6,2.2c0.3,1,0.4,2.4,0.4,4.1c0,1.6-0.4,2.8-1.2,3.7c-0.8,0.9-1.7,1.5-2.8,2c-1.1,0.5-2.2,0.8-3.5,1
		c-1.2,0.1-2.3,0.2-3.3,0.2c-3.5,0-6.9-0.2-10.4-0.6C462.3,230,459.2,230.2,456.5,231.1z"/>
	<path class="st1" d="M524.3,217.5c10.4-0.6,19.4-0.3,27.2,1c7.8,1.2,14.5,3.5,20.2,6.9s10.5,7.8,14.4,13.3s7.1,12.2,9.5,20.1
		c1,3.3,1.8,6.4,2.3,9.2c0.5,2.8,0.8,5.9,0.9,9.2c0.1,3.3,0,7.1-0.2,11.3c-0.2,4.2-0.6,9.4-1.2,15.4c-1,7.8-3.7,15-8,21.6
		s-9.8,12.2-16.4,16.7c-6.6,4.5-14.1,7.8-22.5,9.8s-17.1,2.3-26.1,0.9c-9.1-1.3-17.4-4.3-24.9-9.1c-7.6-4.8-13.9-10.9-19.1-18.4
		c-3.2-4.2-5.6-9.2-7.3-15s-2.8-11.9-3.3-18.1c-0.5-6.3-0.4-12.5,0.4-18.8s2.2-12,4.2-17.2c2.2-4.8,5-9.4,8.4-13.8
		c3.5-4.5,7.3-8.5,11.7-12c4.3-3.5,9-6.5,14.1-8.9C513.5,219.3,518.8,217.9,524.3,217.5z M566.4,239.1c-2.2-1.9-5.1-3.6-9-5.2
		c-3.8-1.6-7.6-2.7-11.3-3.3s-7.1-0.7-9.9-0.2c-2.9,0.5-4.6,1.9-5.2,4.2c-0.6,3.3-0.9,7.4-0.9,12.2s0.1,10,0.3,15.4
		c0.2,5.5,0.4,11.1,0.6,16.9s0.2,11.3,0.1,16.5c-0.1,2.9-0.3,6.3-0.4,10.4c-0.1,4,0,8,0.5,11.8s1.5,7.2,2.9,10.2s3.7,4.7,6.9,5.3
		c7.1,1.4,13.3,0.8,18.7-1.8c5.4-2.7,9.9-6.7,13.5-12.1s6.2-11.7,7.9-18.9c1.7-7.2,2.3-14.5,1.8-21.9c-0.4-7.4-2-14.6-4.8-21.6
		C575.5,249.9,571.6,244,566.4,239.1z"/>
	<path class="st1" d="M687.5,221.4c1.9,0.7,3.7,1.7,5.4,2.9s3.1,2.5,4.2,3.9c1.1,1.4,1.8,2.7,2.2,4.1s0.2,2.5-0.5,3.3
		c-1.7,2-3.9,2.8-6.4,2.3s-4.8-1.3-6.8-2.3c-0.4,0-1.7-0.5-3.7-1.6s-4.4-2.1-7.2-3s-5.8-1.5-8.9-1.6c-3.1-0.1-5.9,0.7-8.5,2.6
		c-2.7,1.9-4.6,4.2-5.6,6.9s-1.4,5.5-1.2,8.2s0.9,5.3,2.2,7.8c1.2,2.5,2.8,4.3,4.6,5.6c5.8,5.5,11,10,15.8,13.6s8.9,6.9,12.4,9.9
		s6.4,6.2,8.6,9.5c2.2,3.3,3.8,7.5,4.6,12.5c1.7,8.6,1.3,15.9-1.4,21.7c-2.7,5.8-6.7,10.4-12,13.7c-5.3,3.3-11.4,5.5-18.4,6.7
		c-6.9,1.2-13.7,1.4-20.3,0.8s-12.6-2.1-18-4.3c-5.4-2.2-9.3-5-11.6-8.3c-0.1-0.3-0.6-1-1.4-2c-0.8-1.1-1.5-2.3-2.2-3.8
		c-0.6-1.4-1.1-2.9-1.3-4.4s0.3-2.8,1.4-4c1.4-1.4,2.7-2.2,3.9-2.4c1.2-0.1,2.2,0.1,3.1,0.6c0.9,0.6,1.8,1.4,2.5,2.5
		s1.3,2.1,1.7,3.1c1.7,2.6,4.5,4.7,8.2,6.3c3.7,1.6,7.6,2.3,11.6,2.2c4-0.1,7.6-1.3,10.8-3.5s5.1-5.7,5.7-10.6
		c0-5.5-1.2-9.6-3.7-12.5c-2.4-2.9-5.4-5.3-9-7.2c-3.5-1.9-7.3-3.8-11.2-5.5c-4-1.7-7.5-4.1-10.7-7.1c-4-3.2-7.5-6.2-10.4-9.2
		s-5.2-6.2-6.9-9.8c-1.7-3.6-2.8-7.7-3.3-12.4c-0.5-4.7-0.3-10.3,0.5-16.9c0.6-5.5,3.6-10.3,9.1-14.4s12.2-7.1,20.1-9
		c7.9-1.9,16.5-2.5,25.8-1.8C670.8,215,679.5,217.4,687.5,221.4z"/>
	<path class="st1" d="M811.9,318.8c0,2.2,0,4.6,0,7.2c0,2.7,0,5.3-0.1,7.9s-0.3,5.1-0.6,7.5c-0.4,2.4-1,4.4-1.8,6.2
		c-0.6,1.2-2.9,2.1-6.9,2.7c-4,0.7-8.4,1-13.1,1c-4.7,0-9-0.3-13-1c-4-0.6-6.2-1.7-6.8-3.1c-0.9-2.6-1.3-6-1.4-10.3
		c-0.1-4.2-0.1-8.7,0-13.4c0.1-4.7,0.1-9.2,0.2-13.5c0.1-4.3-0.1-7.8-0.5-10.6c-3.3-0.4-6.9-0.7-10.7-0.8c-3.8-0.1-7.7-0.1-11.8-0.1
		c-4,0-8.1,0-12.1-0.1s-7.9-0.3-11.7-0.8c-0.9,4-1.3,8.2-1.3,12.6s0.1,8.7,0.3,13.1c0.2,4.3,0.4,8.4,0.4,12.3
		c0.1,3.9-0.1,7.2-0.5,9.9c-0.3,1.9-1.1,3.1-2.5,3.8c-1.4,0.6-2.8,0.9-4.3,0.6c-1.5-0.2-2.8-0.9-4-2c-1.2-1.2-1.7-2.6-1.7-4.3
		c0-4.9-0.1-9.7-0.2-14.5c-0.1-4.7-0.1-10.7,0.2-17.9c0.3-8.2,0.5-16.3,0.8-24.3c0.2-8,0.8-15.7,1.8-23s2.7-14.1,5-20.4
		s5.7-11.8,10.1-16.5c2.9-3.3,6.6-6.3,11.2-8.9s10.2-3.9,16.6-3.9c9.1,0,16.9,1.4,23.4,4.3s12,6.8,16.4,11.9
		c4.4,5,7.9,10.9,10.5,17.6s4.5,13.9,5.7,21.7s2,15.8,2.3,24.2C812.2,302.3,812.2,310.6,811.9,318.8z M778,285.5
		c0-9.9-0.6-18.4-1.7-25.3c-1.2-6.9-2.8-12.5-5.1-16.8c-2.2-4.3-4.9-7.4-8.1-9.4c-3.2-1.9-6.8-2.9-10.8-2.9c-2.7,0-5.2,1-7.3,3
		c-2.2,2-4.1,4.7-5.7,8c-1.7,3.3-3.1,7-4.2,11c-1.2,4-2.1,8.1-2.9,12.1c-0.8,4-1.4,7.8-1.7,11.4c-0.4,3.6-0.5,6.6-0.5,8.9H778
		L778,285.5z"/>
</g>
</svg>
